<?xml version="1.0" standalone="no"?>
<!DOCTYPE svg PUBLIC "-//W3C//DTD SVG 1.1//EN" "http://www.w3.org/Graphics/SVG/1.1/DTD/svg11.dtd" >
<svg xmlns="http://www.w3.org/2000/svg">
<metadata>
Created by FontForge 20120731 at Sat Apr 30 21:38:03 2016
 By admin
</metadata>
<defs>
<font id="iconfont" horiz-adv-x="1024" >
  <font-face 
    font-family="iconfont"
    font-weight="500"
    font-stretch="normal"
    units-per-em="1024"
    panose-1="2 0 6 3 0 0 0 0 0 0"
    ascent="896"
    descent="-128"
    x-height="792"
    bbox="-0.307693 -224 1921 896.105"
    underline-thickness="50"
    underline-position="-100"
    unicode-range="U+0078-E768"
  />
<missing-glyph horiz-adv-x="374" 
d="M34 0v682h272v-682h-272zM68 34h204v614h-204v-614z" />
    <glyph glyph-name=".notdef" horiz-adv-x="374" 
d="M34 0v682h272v-682h-272zM68 34h204v614h-204v-614z" />
    <glyph glyph-name=".null" horiz-adv-x="0" 
 />
    <glyph glyph-name="nonmarkingreturn" horiz-adv-x="341" 
 />
    <glyph glyph-name="x" unicode="x" horiz-adv-x="1001" 
d="M281 543q-27 -1 -53 -1h-83q-18 0 -36.5 -6t-32.5 -18.5t-23 -32t-9 -45.5v-76h912v41q0 16 -0.5 30t-0.5 18q0 13 -5 29t-17 29.5t-31.5 22.5t-49.5 9h-133v-97h-438v97zM955 310v-52q0 -23 0.5 -52t0.5 -58t-10.5 -47.5t-26 -30t-33 -16t-31.5 -4.5q-14 -1 -29.5 -0.5
t-29.5 0.5h-32l-45 128h-439l-44 -128h-29h-34q-20 0 -45 1q-25 0 -41 9.5t-25.5 23t-13.5 29.5t-4 30v167h911zM163 247q-12 0 -21 -8.5t-9 -21.5t9 -21.5t21 -8.5q13 0 22 8.5t9 21.5t-9 21.5t-22 8.5zM316 123q-8 -26 -14 -48q-5 -19 -10.5 -37t-7.5 -25t-3 -15t1 -14.5
t9.5 -10.5t21.5 -4h37h67h81h80h64h36q23 0 34 12t2 38q-5 13 -9.5 30.5t-9.5 34.5q-5 19 -11 39h-368zM336 498v228q0 11 2.5 23t10 21.5t20.5 15.5t34 6h188q31 0 51.5 -14.5t20.5 -52.5v-227h-327z" />
    <glyph glyph-name="uniE600" unicode="&#xe600;" horiz-adv-x="1000" 
d="M514 497q-74 0 -126.5 -52t-52.5 -126t52.5 -126.5t126.5 -52.5t126 52.5t52 126.5t-52 126t-126 52zM514 220q-41 0 -70 29t-29 70t29 70t70 29t70 -29t29 -70t-29 -70t-70 -29zM899 408q-24 24 -27 32q-2 9 4 45q6 22 5.5 51.5t-14.5 49.5q-10 14 -27.5 23t-29.5 12
t-33 6q-35 4 -42 10q-6 5 -21 37q-9 20 -15.5 31.5t-20 26t-29.5 19.5q-11 4 -23 4q-26 0 -72 -26q-31 -17 -40.5 -17t-40.5 17q-46 26 -72 26q-11 0 -22 -4q-16 -5 -30 -19.5t-20 -26t-15 -31.5q-15 -32 -22 -37q-7 -6 -41 -10q-21 -3 -33.5 -6t-29.5 -12t-27 -23
q-14 -20 -15 -49.5t6 -51.5q6 -36 3 -45q-2 -8 -27 -32q-15 -15 -23.5 -25t-18 -28t-9.5 -36t9.5 -36.5t18 -28t23.5 -25.5q25 -24 27 -32q3 -8 -3 -44q-7 -23 -6 -52t15 -50q10 -14 27 -23t29.5 -11.5t33.5 -5.5q34 -5 41 -10t22 -38q9 -20 15 -31t20 -25.5t30 -20.5
q11 -4 22 -4q26 0 72 26q32 18 41 18t40 -18q46 -26 72 -26q12 0 23 4q16 6 29.5 20.5t20 25.5t15.5 31q15 33 21 38q7 5 42 10q21 3 33 5.5t29.5 11.5t27.5 23q14 21 14.5 50t-5.5 52q-6 36 -4 44q3 8 27 32q16 16 24.5 25.5t17.5 28t9 36.5t-9 36t-17.5 28t-24.5 25z
M843 286q-38 -38 -46 -65q-9 -27 1 -82q6 -35 4 -42q-6 -3 -36 -8q-55 -7 -79 -25q-22 -17 -45 -67q-13 -28 -19 -35q-7 3 -30 15q-49 28 -79 28t-80 -28q-23 -12 -30 -15q-6 7 -18 35q-23 50 -46 67q-23 18 -78 25q-30 5 -36 8q-2 8 4 42q9 55 1 82q-8 26 -47 65
q-27 27 -27 33t27 33q39 38 47 64q8 28 -1 83q-6 34 -4 41q6 4 36 8q55 8 78 25t46 68q12 27 18 34q8 -2 30 -15q50 -28 80 -28t79 28q23 13 30 15q6 -7 19 -34q23 -51 45 -68q24 -17 79 -25q29 -4 36 -8q2 -7 -4 -41q-10 -55 -1 -82q8 -27 46 -65q28 -27 28 -33t-28 -33z
" />
    <glyph glyph-name="uniE601" unicode="&#xe601;" horiz-adv-x="1000" 
d="M668 471q14 0 30 -2q-20 94 -109 155.5t-203 61.5q-128 0 -218.5 -76.5t-90.5 -185.5q0 -123 124 -209l-31 -93l108 54q78 -15 108 -15q13 0 29 1q-9 33 -9 65q0 101 76 172.5t186 71.5zM502 555q18 0 28.5 -10.5t10.5 -28t-10.5 -28t-28.5 -10.5t-32 11t-14 27.5
t14 27.5t32 11zM286 478q-18 0 -32.5 11t-14.5 27.5t14.5 27.5t32.5 11q17 0 27.5 -10.5t10.5 -28t-10.5 -28t-27.5 -10.5zM950 230q0 92 -78.5 158.5t-183.5 66.5q-110 0 -186.5 -66t-76.5 -159t76.5 -158.5t186.5 -65.5q31 0 92 16l85 -47l-23 77q108 82 108 178zM603 269
q-12 0 -21.5 9.5t-9.5 21.5t9.5 21.5t21.5 9.5q16 0 27 -9.5t11 -21.5t-11 -21.5t-27 -9.5zM773 269q-12 0 -21.5 9.5t-9.5 21.5t9.5 21.5t21.5 9.5q16 0 27 -9.5t11 -21.5t-11 -21.5t-27 -9.5z" />
    <glyph glyph-name="uniE602" unicode="&#xe602;" horiz-adv-x="1000" 
d="M941 -54l-212 216q-5 6 -12 8q73 98 73 221q0 98 -47.5 182t-129.5 132.5t-179 48.5t-179 -48.5t-129.5 -132.5t-47.5 -182.5t47.5 -182.5t129.5 -132.5t179 -48.5q134 0 235 91q3 -6 7 -10l212 -217q11 -11 26.5 -11t26.5 11.5t11 27t-11 27.5zM434 84q-124 0 -212 90
t-88 217t88 216.5t212 89.5t212 -89.5t88 -216.5t-88 -217t-212 -90z" />
    <glyph glyph-name="uniE603" unicode="&#xe603;" horiz-adv-x="1000" 
d="M632 101q-73 -51 -163 -50q-8 0 -23 1q-2 0 -9 1l-18 3q-1 0 -10 2q-11 3 -17 5q-1 0 -4 1t-4 1q-10 4 -19 7l-4 2q-13 6 -21 10l-1 1q-36 19 -64 47q0 1 -1 1q-9 10 -16 19q-2 2 -3 4q-61 76 -61 173h73l-117 176l-118 -176h74q0 -113 64 -207l2 -2v-1q2 -4 13 -17
q1 -2 3 -4t2 -3q8 -9 21 -23q2 -1 2 -2q37 -37 83 -62h1l1 -1q13 -7 27 -13q1 -1 3 -2t4 -1q8 -3 23 -9q7 -2 12 -4q10 -3 21 -5q13 -3 14 -3q5 -2 6 -2q4 0 21 -2q5 -1 7 -2q20 -1 37 -1q115 0 209 66q15 11 18.5 28.5t-7.5 32.5q-10 15 -28 18.5t-33 -7.5zM839 329
q0 114 -65 207v2l-1 1q-7 9 -17 21q0 1 -1 3q-57 68 -137 103q-1 0 -2.5 0.5t-2.5 0.5q-9 4 -26 10q-8 3 -9 3q-9 3 -23 6q-2 0 -6 1t-7 2q-1 0 -3 0.5t-3 0.5q-3 1 -18 3q-2 0 -5.5 0.5t-6.5 0.5q-12 1 -29 2h-2h-3h-1q-115 0 -209 -66q-15 -11 -18 -29t7.5 -33t28.5 -18
t32 8q73 51 162 50q13 0 25 -2h7q13 -2 20 -4q1 0 8 -1q12 -3 19 -5l6 -2q12 -4 21 -8h1l1 -1q62 -26 105 -79h1q63 -77 63 -177h-74l118 -176l117 176h-73z" />
    <glyph glyph-name="uniE604" unicode="&#xe604;" horiz-adv-x="1000" 
d="M833 754h-382h-121h-133q-1 0 -4 -0.5t-9.5 -2t-12 -5t-10 -11t-4.5 -17.5v-136v-125v-537q0 -17 11.5 -28.5t28.5 -11.5h108l193 1l335 -1q17 0 28.5 11.5t11.5 28.5v795q0 16 -11.5 27.5t-28.5 11.5zM276 -81h-39v796h39v-796zM794 276l-79 79l-80 -79v438h159v-438z
" />
    <glyph glyph-name="uniE605" unicode="&#xe605;" horiz-adv-x="1048" 
d="M524 896q-104 0 -199 -40.5t-163.5 -109t-109 -163.5t-40.5 -199q0 -167 98 -302l39 41q-82 117 -82 261q0 93 36.5 177.5t97.5 146t145.5 97.5t177.5 36t178 -36t146 -97.5t97 -146t36 -177.5t-36 -177.5t-97 -146t-146 -97.5t-178 -36q-142 0 -259 80l-34 -42
q132 -93 293 -93q104 0 199 40.5t163.5 109t109 163.5t40.5 199t-40.5 199t-109 163.5t-163.5 109t-199 40.5zM616 640v-512h55v512h-55zM378 640v-512h55v512h-55z" />
    <glyph glyph-name="uniE606" unicode="&#xe606;" 
d="M951 -45h-878q-17 0 -29.5 -12t-12.5 -29.5t12.5 -29.5t29.5 -12h878q17 0 29.5 12t12.5 29.5t-12.5 29.5t-29.5 12zM491 47q8 -8 21 -8t21 8l266 256q11 10 3 22q-4 6 -39 6h-105v377q0 18 -10 29.5t-32 11.5h-208q-22 0 -32 -11.5t-10 -29.5v-377h-126h-2q-12 0 -16 -6
q-8 -12 3 -22z" />
    <glyph glyph-name="uniE607" unicode="&#xe607;" 
d="M327 7q0 -24 -13 -41t-32 -17t-32 17t-13 41v583q0 24 13 41t32 17t32 -17t13 -41v-583zM836 341q-14 -2 -64 -17.5t-94.5 -27t-56.5 -8.5q-8 2 -11.5 10.5t-4.5 17.5t-12.5 16.5t-35.5 7.5q-39 0 -82.5 -7.5t-66.5 -14.5l-24 -8q-1 -1 -3 -2t-7.5 -1t-10 2t-8 10
t-3.5 21v204q0 20 10 35.5t21 21.5l10 5q7 4 20 9t55.5 14t89.5 9q22 0 33 -7t12 -16t4.5 -17.5t13.5 -10.5q14 -4 63 6.5t91 23.5l42 12q37 7 47.5 -3t10.5 -51v-178q0 -13 -1.5 -22t-11 -19.5t-26.5 -14.5z" />
    <glyph glyph-name="uniE608" unicode="&#xe608;" 
d="M741 649q25 0 43 -22t18 -53v-548q0 -32 -18 -54t-43 -22h-31q-26 0 -44 22t-18 54v548q0 31 18 53t44 22h31zM314 649q26 0 44 -22t18 -53v-548q0 -32 -18 -54t-44 -22h-31q-25 0 -43 22t-18 54v548q0 31 18 53t43 22h31z" />
    <glyph glyph-name="uniE609" unicode="&#xe609;" 
d="M508 672q-101 0 -187 -50t-136 -136t-50 -187.5t50 -187.5t136 -136t187 -50t187 50t136 136t50 187.5t-50 187.5t-136 136t-187 50zM508 -7q-127 0 -216 89.5t-89 216t89 216t216 89.5t216 -89.5t89 -216t-89 -216t-216 -89.5zM406 146l289 170l-289 135v-305z" />
    <glyph glyph-name="uniE60A" unicode="&#xe60a;" 
d="M652 301h-93v102q0 7 -5 12t-12 5h-68q-7 0 -12 -5t-5 -12v-102l-93 -1q-6 0 -8 -4v-1v-1v-2v0v-1q0 -1 1 -2v-1h1v-1l140 -157l1 -1h1v-1q1 0 2 -1h1q4 -1 7 1l1 2v0l147 157l1 1v1q0 1 1 2v1v0v1q0 8 -8 8zM474 437h68q7 0 12 5t5 12v17q0 7 -5 12t-12 5h-68
q-7 0 -12 -5t-5 -12v-17q0 -7 5 -12t12 -5zM508.5 674q-101.5 0 -187.5 -50t-136 -136t-50 -187.5t50 -187.5t136 -136t187.5 -50t187.5 50t136 136t50 187.5t-50 187.5t-136 136t-187.5 50zM508.5 -5q-126.5 0 -216 89.5t-89.5 216t89.5 216t216 89.5t216 -89.5t89.5 -216
t-89.5 -216t-216 -89.5z" />
    <glyph glyph-name="uniE60B" unicode="&#xe60b;" 
d="M688 693q0 12 -9 21t-21 9h-261q-13 0 -22 -9t-9 -21v-260h322v260zM729 -11q-4 17 -9 34q-5 19 -11 39h-362q-8 -26 -14 -48q-5 -19 -10 -36q-6 -19 -8 -25q-2 -7 -3 -15t1 -14.5t9.5 -10.5t21.5 -4h36h66h80h79h63h35q23 0 33.5 12t2.5 38q-5 13 -10 30zM977 100v0
q0 22 -1 44v51v52h-897v-149v-78q0 -12 9 -21t22 -9h57h20h19h33h29l43 126h433l44 -126h31q14 0 29.5 -0.5t28.5 0.5h69q13 0 22 9t9 21v64v2v14zM218 133.5q-9 -8.5 -22 -8.5q-12 0 -21 8.5t-9 21.5t9 21t21 8q13 0 22 -8t9 -21t-9 -21.5zM977 348v98q0 13 -9 22t-22 9
h-72h-5h-125v-96h-432v96q-26 -1 -52 -1h-54h-28h-68q-13 0 -22 -9t-9 -22v-70v-7v-68h898v41v7z" />
    <glyph glyph-name="uniE60C" unicode="&#xe60c;" 
d="M827 38l-78 189h-221l-81 -189h-84l212 472l26 55h71l31 -55l208 -472h-84zM640 491l-85 -200h168zM279 143h-63v84h-85v64h85v84h63v-84h84v-64h-84v-84z" />
    <glyph glyph-name="uniE60D" unicode="&#xe60d;" 
d="M836 300l-642 -374v748z" />
    <glyph glyph-name="uniE60E" unicode="&#xe60e;" 
d="M512 -212q104 0 199 40.5t163.5 109t109.5 163.5t41 199t-41 199t-109.5 163.5t-163.5 109t-199 40.5t-199 -40.5t-163.5 -109t-109 -163.5t-40.5 -199t40.5 -199t109 -163.5t163.5 -109t199 -40.5zM516.5 660q99.5 0 184 -49t133.5 -133.5t49 -184.5t-49 -184.5
t-133.5 -133.5t-184 -49t-184 49t-134 133.5t-49.5 184.5t49.5 184.5t134 133.5t184 49zM470 214h256q17 0 29.5 12.5t12.5 30.5t-12.5 30.5t-29.5 12.5h-214v213q0 18 -12.5 30.5t-30 12.5t-30 -12.5t-12.5 -30.5v-256q0 -18 12.5 -30.5t30.5 -12.5z" />
    <glyph glyph-name="uniE60F" unicode="&#xe60f;" 
d="M485 376q0 -24 -17 -41t-41 -17h-206q-24 0 -41 17t-17 41v215q0 24 17 41t41 17h206q24 0 41 -17t17 -41v-215zM485 8q0 -24 -17 -41t-41 -17h-206q-24 0 -41 17t-17 41v215q0 24 17 41t41 17h206q24 0 41 -17t17 -41v-215zM862 376q0 -24 -17 -41t-41 -17h-206
q-24 0 -41 17t-17 41v215q0 24 17 41t41 17h206q24 0 41 -17t17 -41v-215zM862 8q0 -24 -17 -41t-41 -17h-206q-24 0 -41 17t-17 41v215q0 24 17 41t41 17h206q24 0 41 -17t17 -41v-215z" />
    <glyph glyph-name="uniE610" unicode="&#xe610;" 
d="M860 178v-140q0 -29 -20.5 -50t-48.5 -21h-555q-28 0 -48.5 21t-20.5 50v140h-101v-174q0 -58 43.5 -99.5t101.5 -41.5h617q58 0 98.5 41.5t40.5 99.5v174h-107zM755 428l-135 -1l-1 318h-209v-318h-136l241 -319z" />
    <glyph glyph-name="uniE611" unicode="&#xe611;" 
d="M284 578q22 0 36.5 -14.5t14.5 -35.5v-39q0 -22 -14.5 -36.5t-36.5 -14.5h-40q-21 0 -36 14.5t-15 36.5v39q0 21 15 35.5t36 14.5h40zM808 578q20 0 35 -14.5t15 -35.5v-39q0 -22 -15 -36.5t-35 -14.5h-326q-21 0 -36 14.5t-15 36.5v39q0 21 15 35.5t36 14.5h326z
M284 341q22 0 36.5 -15t14.5 -36v-39q0 -21 -14.5 -36t-36.5 -15h-40q-21 0 -36 15t-15 36v39q0 21 15 36t36 15h40zM808 341q20 0 35 -15t15 -36v-39q0 -21 -14.5 -36t-35.5 -15h-326q-21 0 -36 15t-15 36v39q0 21 15 36t36 15h326zM284 103q22 0 36.5 -15t14.5 -36v-39
q0 -21 -14.5 -36t-36.5 -15h-40q-21 0 -36 15t-15 36v39q0 21 15 36t36 15h40zM808 103q20 0 35 -15t15 -36v-39q0 -21 -14.5 -36t-35.5 -15h-326q-21 0 -36 15t-15 36v39q0 21 15 36t36 15h326zM808 103z" />
    <glyph glyph-name="uniE612" unicode="&#xe612;" 
d="M855 545q-21 28 -42 45.5t-42 24.5t-31 9t-30 3q-58 3 -117.5 -28.5t-79.5 -57.5q-30 39 -90 64t-121 19q-33 -4 -72 -29q-32 -21 -53.5 -51t-32.5 -67.5t-9 -81t17.5 -82t37.5 -71.5t47 -60t47 -48q33 -32 68 -62q34 -29 65 -50q16 -12 51 -33.5t44 -25.5q9 2 45.5 23.5
t88 56.5t106.5 91t87 114q6 11 14.5 30t19.5 54.5t15 70t-3 74t-30 68.5zM821 376q-15 -64 -51.5 -123.5t-77.5 -99t-81.5 -70t-66 -44.5t-29.5 -14t-31 15t-69 46t-84 71t-79.5 98t-53.5 119q-4 14 -2 35.5t9 46t21 47t34 39t47.5 23.5t62.5 -1q9 -2 31 -11t58 -33t60 -52
q23 28 48 51q22 19 50.5 34t58.5 13h4q10 -1 16.5 -1.5t21 -3t25 -6.5t25 -11t24 -16.5t19 -24t13.5 -32t3.5 -42t-6.5 -53.5z" />
    <glyph glyph-name="uniE613" unicode="&#xe613;" 
d="M730.5 215q-11.5 31 -35 55.5t-60 45.5t-87.5 42l-2 1l22 226q16 -9 27 -23q26 -36 26 -100q45 0 69.5 21t24.5 56q0 24 -12 45.5t-36 37.5t-59 26q-15 4 -33 6l12 121l-62 6l-12 -124q-48 -1 -86 -12q-45 -12 -77 -34.5t-49.5 -57t-17.5 -78.5q0 -42 12 -72.5t36 -54.5
t61 -44q34 -19 81 -40l-26 -254q-11 3 -18 7q-27 12 -43.5 34.5t-23 52t-6.5 63.5q-12 0 -26 -4t-26.5 -14t-21 -27.5t-8.5 -42.5q0 -34 15.5 -59.5t43 -43t66.5 -26.5q20 -4 42 -6l-12 -119l62 -7l12 124q49 2 88 13q47 12 80.5 37.5t52 63.5t18.5 88q0 40 -11.5 71z
M474 390q-30 14 -49.5 29t-28 33t-8.5 43q0 23 7 41.5t21.5 32.5t38.5 22q21 7 52 7l-22 -213q-8 4 -11 5zM627.5 73q-9.5 -22 -27.5 -37t-44 -24q-20 -6 -46 -8l23 232q14 -6 23 -11q31 -15 49 -30.5t25 -32.5t7 -41q0 -26 -9.5 -48z" />
    <glyph glyph-name="uniE614" unicode="&#xe614;" 
d="M1013 -100l-198 198q84 118 84 263q0 91 -35.5 174.5t-95.5 143.5t-143.5 95.5t-174.5 35.5t-174.5 -35.5t-143.5 -95.5t-95.5 -143.5t-35.5 -174.5t35.5 -174.5t95.5 -143.5t143.5 -95.5t174.5 -35.5q145 0 263 84l198 -198q11 -11 26 -11t25 11l51 51q11 10 11 25
t-11 26zM129 361q0 87 43 161t117 117t161 43t161 -43t117 -117t43 -161t-43 -161t-117 -117t-161 -43t-161 43t-117 117t-43 161z" />
    <glyph glyph-name="uniE615" unicode="&#xe615;" 
d="M975 386q0 25 -20 39l-406 297q-13 10 -29 10t-29 -10l-406 -297q-8 -5 -13 -15q-3 -2 -5 -5q-3 -6 -1 -13q0 -1 -0.5 -3t-0.5 -3v-493q0 -20 14.5 -34.5t34.5 -14.5h812q20 0 34.5 14.5t14.5 34.5v493zM513 693q3 2 7 2t7 -2l399 -292l-406 -232l-407 232zM934.5 -115.5
q-3.5 -3.5 -8.5 -3.5h-812q-5 0 -8.5 3.5t-3.5 8.5v472l409 -233q4 -2 9 -2t9 2l409 234v-473q0 -5 -3.5 -8.5z" />
    <glyph glyph-name="uniE616" unicode="&#xe616;" horiz-adv-x="1132" 
d="M1126 596l-164 272q-19 28 -57 28h-679q-37 0 -56 -28l-153 -272q-3 -3 -6 -8.5t-5 -8.5v-5q-6 0 -6 -17l6 -12q0 -2 1.5 -3.5t4.5 -3.5t5 -4l520 -645l12 -11h5h12h11h6q2 0 3.5 1.5t3.5 4.5t4 5l521 645q28 28 11 62zM1086 585h-266l113 254zM571 845l187 -260h-373z
M351 602l-119 254h300zM605 856h300l-119 -254zM764 545l-198 -605l-193 605h391zM204 834l113 -255h-266zM57 545h277l186 -577zM803 545h278l-459 -577zM803 545z" />
    <glyph glyph-name="uniE617" unicode="&#xe617;" 
d="M152 688h305q9 0 14.5 -6t7.5 -18.5t2.5 -20.5t0 -25.5t-0.5 -22.5v-169q0 -6 0.5 -21.5t0 -24t-1.5 -19.5t-5.5 -17.5t-11.5 -9.5t-21 -3.5t-33.5 0.5t-23.5 1h-162q-6 0 -23 -0.5t-25.5 -0.5t-20.5 2t-18 7.5t-7 15.5v309q6 18 23 23zM194 619v-220h220v223h-219
q-1 0 -1 -3zM562 688h305q20 -7 23 -27v-301q-5 -22 -21 -27q-9 -2 -22 -2.5t-30.5 0.5t-24.5 1h-157q-7 0 -24.5 -1t-31 -1t-21.5 3t-12.5 9.5t-6.5 19t-2 21.5t0.5 25.5t0.5 22.5v158q0 8 -0.5 25.5t-0.5 27t2 21.5t7.5 18t15.5 7zM604 619v-220h220v223h-219q-2 0 -1 -3z
M294 554q23 5 39 -8t17 -35q0 -27 -22 -40t-45 -2q-16 9 -21.5 28t3.5 36.5t29 20.5zM704 554q39 8 51 -26q10 -30 -10 -51q-16 -16 -41 -12q-22 4 -30.5 24t0 40.5t30.5 24.5zM455 -84h-302q-19 6 -24 25v308q6 19 20 23q9 2 22 2.5t30.5 -0.5t24.5 -1h156q7 0 24.5 1
t31 0.5t22.5 -2.5q8 -3 13 -9.5t6.5 -18.5t2 -21t0 -25.5t-0.5 -23.5v-162q0 -6 0.5 -24.5t0 -26.5t-2.5 -20t-8 -18t-16 -7zM194 203v-220h220v223h-219q-1 0 -1 -3zM890 245v-86q-1 -7 -0.5 -46t-0.5 -47h-218v50q-5 2 -33 1.5t-34 -0.5q-2 -17 -1.5 -99.5t0.5 -101.5h-40
q-10 2 -16 8.5t-8 18.5t-2 21.5t0.5 27t0.5 24.5v158q0 7 -1 25.5t-0.5 32t2.5 21.5q2 5 4.5 8.5t7 5.5t8 3.5t11 2t11.5 0.5h13h13h148v-136h69q0 12 -0.5 68.5t1.5 67.5q17 0 31 -0.5t23.5 -7t10.5 -20.5zM300 140q25 2 40.5 -17.5t6.5 -45.5q-9 -23 -33.5 -27t-42.5 12.5
t-10.5 45t39.5 32.5zM745 -84h-74v41q0 33 1 39h73v-80zM890 -4v-52q-4 -21 -24 -28h-52q0 8 -0.5 41t1.5 39h75z" />
    <glyph glyph-name="uniE618" unicode="&#xe618;" 
d="M952 39l-93 138q-6 8 -21 10t-26 -4l-189 -97q-14 -7 -10 -18q4 -10 22 -13l50 -7q-38 -45 -85 -69.5t-95 -24.5q-47 0 -94 25t-85 67.5t-61.5 106.5t-23.5 135q0 17 -20.5 29.5t-49.5 12.5t-49.5 -12.5t-20.5 -29.5q0 -116 53.5 -212t146.5 -151t204 -55q96 0 178.5 41
t139.5 116l96 -15h7q13 0 21.5 5t8.5 13q0 5 -4 9zM186 420q-15 2 -21 11l-94 139q-7 11 5 19t30 6l95 -15q57 75 140 116.5t178 41.5q112 0 204.5 -55.5t146 -151.5t53.5 -212q0 -17 -20.5 -29.5t-49.5 -12.5t-49 12.5t-20 29.5q0 71 -24 135t-62 106.5t-85 67.5t-94 25
q-48 0 -95 -24.5t-84 -69.5l49 -7q18 -3 22 -13q5 -11 -9 -18l-190 -97q-8 -5 -19 -5q-4 0 -7 1z" />
    <glyph glyph-name="uniE619" unicode="&#xe619;" 
d="M753 403q-74 0 -126 56l-192 -109q8 -27 8 -50q0 -40 -19 -78l184 -105q24 37 62 58.5t83 21.5q72 0 122 -50.5t50 -122t-50 -122t-121.5 -50.5t-122 50.5t-50.5 121.5q0 2 2 19l-209 119l1 1q-47 -35 -104 -35q-72 0 -122 50t-50 121.5t50.5 122t121.5 50.5
q74 0 126 -56l192 110q-8 27 -8 50q0 71 50.5 121.5t122 50.5t122 -50.5t50.5 -122t-50.5 -122t-122.5 -50.5zM753 -79q43 0 73.5 30t30.5 73t-30.5 73.5t-73.5 30.5t-73 -30.5t-30 -73.5t30 -73t73 -30zM271 403q-43 0 -73.5 -30t-30.5 -73t30.5 -73t73.5 -30t73 30t30 73
t-30 73t-73 30zM753 679q-43 0 -73 -30t-30 -73t30 -73.5t73 -30.5t73.5 30.5t30.5 73.5t-30.5 73t-73.5 30z" />
    <glyph glyph-name="uniE61A" unicode="&#xe61a;" 
d="M843 -148h-668q-46 0 -78.5 32.5t-32.5 78.5v668q0 47 33 82t79 35h448v-56h-448q-23 0 -39.5 -18.5t-16.5 -42.5v-668q0 -23 16 -39t39 -16h668q23 0 42 16.5t19 39.5v448h56v-448q0 -46 -35.5 -79t-81.5 -33zM510 122q-10 -11 -28 -15l-244 -120q-20 -9 -33.5 4.5
t-5.5 34.5l120 244q4 18 14 29l433 433q16 16 39 16t40 -16l98 -99q16 -16 16 -39t-16 -39zM252 60q-5 -10 2 -17t18 -3l150 91l-79 79zM392 240l59 -59q8 -7 20 -20l315 315l-99 98l-314 -315zM884 614l-59 59q-8 8 -19.5 8t-19.5 -8l-58 -58l97 -100l59 59q8 8 8 20t-8 20
z" />
    <glyph glyph-name="uniE61B" unicode="&#xe61b;" 
d="M438 735q93 0 158.5 -64t65.5 -155.5t-65.5 -156t-158.5 -64.5t-158.5 64.5t-65.5 156t65.5 155.5t158.5 64zM438 735q93 0 158.5 -64t65.5 -155.5t-65.5 -156t-158.5 -64.5t-158.5 64.5t-65.5 156t65.5 155.5t158.5 64zM354 222h187q119 0 204 -83.5t85 -200.5v-19
q0 -15 -9.5 -26t-31 -18t-43.5 -11t-60 -6t-67.5 -2.5t-77.5 -0.5h-187q-52 0 -78 0.5t-66.5 2t-61 5.5t-43 11t-31.5 18.5t-9 26.5v19q0 117 84.5 200.5t204.5 83.5zM748 643h209q5 0 8.5 -3.5t3.5 -8.5v-69q0 -5 -3.5 -8.5t-8.5 -3.5h-209q-4 0 -7.5 3.5t-3.5 8.5v69
q0 5 3.5 8.5t7.5 3.5zM818 712h69q5 0 8.5 -3t3.5 -8v-209q0 -5 -3.5 -8t-8.5 -3h-69q-5 0 -8.5 3t-3.5 8v209q0 5 3.5 8t8.5 3z" />
    <glyph glyph-name="uniE61C" unicode="&#xe61c;" 
d="M642 643l213 -213l-470 -471l-214 214zM727 729l214 -214l-64 -64l-214 214zM150 152l214 -214l-299 -85zM810 732l134 -134q16 -17 15.5 -41t-18.5 -42t-42 -18.5t-41 15.5l-134 134q-16 17 -15.5 41t18.5 42t42 18.5t41 -15.5z" />
    <glyph glyph-name="uniE61D" unicode="&#xe61d;" 
d="M512 812q18 0 30 -12l151 -151q13 -13 13 -30.5t-12.5 -30t-30.5 -12.5t-30 12l-78 78v-323h323l-78 78q-12 12 -12 30t12.5 30.5t30 12.5t30.5 -13l151 -151q12 -12 12 -30t-12 -30l-151 -151q-13 -13 -30.5 -13t-30 12.5t-12.5 30.5t12 30l78 78h-323v-323l78 78
q12 12 30 12t30.5 -12.5t12.5 -30t-13 -30.5l-151 -151q-12 -12 -30 -12t-30 12l-151 151q-13 13 -13 30.5t12.5 30t30.5 12.5t30 -12l78 -78v323h-323l78 -78q12 -12 12 -30t-12.5 -30.5t-30 -12.5t-30.5 13l-151 151q-12 12 -12 30t12 30l151 151q13 13 30.5 13t30 -12.5
t12.5 -30.5t-12 -30l-78 -78h323v323l-78 -78q-12 -12 -30 -12t-30.5 12.5t-12.5 30t13 30.5l151 151q12 12 30 12z" />
    <glyph glyph-name="uniE61E" unicode="&#xe61e;" 
d="M864 108q-68 0 -115 -49l-431 216q2 12 2 25t-2 25l431 216q47 -49 115 -49q66 0 113 47t47 113t-47 113t-113 47t-113 -47t-47 -113q0 -13 2 -25l-431 -216q-47 49 -115 49q-66 0 -113 -47t-47 -113t47 -113t113 -47q68 0 115 49l431 -216q-2 -12 -2 -25q0 -66 47 -113
t113 -47t113 47t47 113t-47 113t-113 47z" />
    <glyph glyph-name="uniE61F" unicode="&#xe61f;" 
d="M512 181l416 347q-1 0 -3.5 0.5t-3.5 0.5h-818q-1 0 -3.5 -0.5t-3.5 -0.5zM958 492q0 4 -2 11l-295 -246l295 -295q2 7 2 9v521zM68 503q-2 -7 -2 -11v-521q0 -1 2 -9l295 295zM633 234l-109 -91q-5 -4 -12 -4t-12 4l-108 90l-298 -297q7 -2 9 -2h818q2 0 9 2z" />
    <glyph glyph-name="uniE620" unicode="&#xe620;" 
d="M900 345q-8 1 -14.5 11t-10.5 37q-5 44 -29 64.5t-74 29.5q-53 11 -93 41q-40 31 -67 58q-26 24 -40 17t-14 -25v-153q0 -63 -0.5 -136t-0.5 -138v-178q1 -27 -9 -60t-37 -62q-28 -29 -73 -50t-113 -24q-69 -4 -125 23q-55 27 -85.5 68t-30 89.5t44 91.5t93.5 59.5
t97 18.5t83.5 -6t54.5 -15v317q0 133 1 299q0 32 17.5 53t46.5 24q24 3 40 -9.5t32 -35.5t40 -52q24 -30 65 -58q35 -25 61 -37q24 -10 49 -20q23 -10 45 -23q22 -14 49 -44q27 -29 33 -60.5t0.5 -57t-17 -42t-19.5 -15.5z" />
    <glyph glyph-name="uniE621" unicode="&#xe621;" 
d="M517 769q-92 0 -175.5 -34.5t-148.5 -99.5t-99.5 -148.5t-34.5 -175.5t34.5 -176t99.5 -149t148.5 -99.5t175.5 -34.5t176 34.5t149 99.5t99.5 149t34.5 176t-34.5 175.5t-99.5 148.5t-149 99.5t-176 34.5zM801 27q-57 -57 -130 -87.5t-153.5 -30.5t-154 30.5t-130 87.5
t-87 130t-30.5 153.5t30.5 154t87 130t130 87t154 30.5t153.5 -30.5t130 -87t87.5 -130t30.5 -154t-30.5 -153.5t-87.5 -130zM525 266v296q0 12 -8.5 20.5t-20.5 8.5t-20.5 -8.5t-8.5 -20.5v-315q0 -19 18 -27zM747 247q0 -14 -9.5 -23t-22.5 -9h-214q-13 0 -22.5 9t-9.5 23
q0 13 9.5 22.5t22.5 9.5h214q13 0 22.5 -9.5t9.5 -22.5z" />
    <glyph glyph-name="uniE622" unicode="&#xe622;" 
d="M960 339q0 12 -8.5 21t-21.5 9h-46q-14 0 -27 9.5t-17 23.5l-24 58q-7 12 -4.5 28t12.5 26l33 33q8 9 8 21.5t-8 20.5l-56 55q-8 9 -20.5 9t-21.5 -9l-33 -32q-10 -10 -26 -12.5t-28 4.5l-58 24q-14 4 -23.5 17t-9.5 27v46q0 13 -9 21.5t-21 8.5h-78q-12 0 -21 -8.5
t-9 -21.5v-46q0 -14 -9.5 -27t-23.5 -17l-58 -24q-12 -7 -28 -4.5t-26 12.5l-33 32q-9 9 -21.5 9t-20.5 -9l-55 -55q-9 -8 -9 -20.5t9 -21.5l32 -33q10 -10 12.5 -26t-4.5 -28l-24 -58q-4 -14 -17 -23.5t-27 -9.5h-46q-13 0 -21.5 -9t-8.5 -21v-78q0 -12 8.5 -21t21.5 -9h46
q14 0 27 -9.5t17 -23.5l24 -58q7 -12 4.5 -28t-12.5 -26l-33 -33q-8 -9 -8 -21.5t8 -20.5l56 -56q8 -8 20.5 -8t21.5 8l33 33q10 10 26 12.5t28 -4.5l58 -24q14 -4 23.5 -17t9.5 -27v-46q0 -13 9 -21.5t21 -8.5h78q12 0 21 8.5t9 21.5v46q0 14 9.5 27t23.5 17l58 24
q12 7 28 4.5t27 -12.5l32 -32q9 -9 21.5 -9t20.5 8l56 56q8 8 8 20.5t-8 21.5l-33 33q-10 10 -12.5 26t4.5 28l24 58q4 14 17 23.5t27 9.5h46q13 0 21.5 9t8.5 21v78zM685 300q0 -71 -50.5 -121.5t-122 -50.5t-122 50.5t-50.5 121.5t50.5 121.5t122 50.5t122 -50.5
t50.5 -121.5z" />
    <glyph glyph-name="uniE623" unicode="&#xe623;" 
d="M512 355q-95 0 -175.5 -64t-127.5 -173.5t-47 -239.5v-26h700v26q0 130 -47 239.5t-127.5 173.5t-175.5 64zM515 404q73 0 125 50.5t52 121.5t-52 121.5t-125 50.5t-125 -50.5t-52 -121.5t52 -121.5t125 -50.5z" />
    <glyph glyph-name="uniE624" unicode="&#xe624;" 
d="M653 -68l-158 157l-157 -157v735h315v-735z" />
    <glyph glyph-name="uniE625" unicode="&#xe625;" 
d="M862 297q0 -24 -17 -41t-41 -17h-584q-24 0 -41 17t-17 41v29q0 24 17 41t41 17h584q24 0 41 -17t17 -41v-29zM527 661q23 0 40.5 -17t17.5 -41v-583q0 -24 -17.5 -41t-40.5 -17h-29q-24 0 -41.5 17t-17.5 41v583q0 24 17.5 41t41.5 17h29z" />
    <glyph glyph-name="uniE626" unicode="&#xe626;" 
d="M945 204h-54q-13 -48 -37 -90l50 -50q24 -24 24 -58t-24 -58l-29 -29q-24 -24 -58 -24t-58 24l-50 50q-43 -24 -90 -37v-52q0 -34 -24 -58t-58 -24h-41q-34 0 -58 24t-24 58v52q-48 13 -90 37l-50 -50q-24 -24 -58 -24t-58 24l-29 29q-24 24 -24 58t24 58l50 50
q-24 42 -37 90h-54q-34 0 -58 24t-24 58v40q0 34 24 58t58 24h53q13 48 36 90l-48 48q-24 24 -24 58t24 58l29 29q24 24 58 24t58 -24l47 -47q44 25 93 38v55q0 34 24 58t58 24h41q34 0 58 -24t24 -58v-55q49 -13 93 -38l47 47q24 24 58 24t58 -24l29 -29q24 -24 24 -58
t-24 -58l-48 -48q23 -42 36 -90h53q34 0 58 -24t24 -58v-40q0 -34 -24 -58t-58 -24zM517 565q-108 0 -184.5 -76t-76.5 -184t76.5 -184.5t184.5 -76.5t184 76.5t76 184.5t-76 184t-184 76zM516.5 205q-42.5 0 -72.5 30t-30 72.5t30 72.5t72.5 30t72.5 -30t30 -72.5
t-30 -72.5t-72.5 -30z" />
    <glyph glyph-name="uniE627" unicode="&#xe627;" 
d="M813 753h-604q-63 0 -107 -44.5t-44 -106.5v-604q0 -62 44 -106.5t107 -44.5h604q62 0 106.5 44.5t44.5 106.5v604q0 62 -44.5 106.5t-106.5 44.5zM780 242h-215v-196q0 -23 -16.5 -39t-39 -16t-39 16t-16.5 39v196h-215q-24 0 -41 17t-17 41t17 41t41 17h215v198
q0 23 16.5 39t39 16t39 -16t16.5 -39v-198h215q24 0 41 -17t17 -41t-17 -41t-41 -17z" />
    <glyph glyph-name="uniE628" unicode="&#xe628;" 
d="M741 415zM522 616q-4 4 -10 4t-10 -4l-204 -192q-2 -2 -1 -5t4 -3h132v-195q0 -6 4.5 -10.5t10.5 -4.5h128q6 0 10.5 4.5t4.5 10.5v195h132q3 0 4 3t-1 5zM900 145l-126 88h-79l132 -107l-145 2q-8 0 -12 -8l-40 -97h-236l-40 97q-4 8 -12 8h-144l131 105h-79l-126 -88
q-15 -9 -22.5 -26.5t-3.5 -33.5l23 -128q4 -16 19.5 -27.5t32.5 -11.5h678q17 0 32.5 11.5t19.5 27.5l23 128q4 16 -3.5 33.5t-22.5 26.5zM900 145z" />
    <glyph glyph-name="uniE629" unicode="&#xe629;" 
d="M515 800q-23 0 -50 -53l-145 -263q-162 -32 -266 -51q-37 -6 -49.5 -34t7.5 -52q33 -39 83.5 -97.5t84.5 -97.5l35 -39q-21 -161 -33 -270q-3 -30 11.5 -48t37.5 -18q16 0 33 8q39 19 94 46.5t101.5 51t55.5 27.5q168 -86 248 -126q17 -8 32 -8q24 0 38 17.5t11 48.5
l-33 270q129 146 201 234q20 24 8 52t-49 34l-264 51q-87 164 -142 264q-24 45 -44 52q-3 1 -6 1z" />
    <glyph glyph-name="uniE62A" unicode="&#xe62a;" 
d="M512 709q-111 0 -205.5 -54.5t-149 -149t-54.5 -205.5t54.5 -205.5t149 -149t205.5 -54.5t205.5 54.5t149 149t54.5 205.5t-54.5 205.5t-149 149t-205.5 54.5zM819 300q0 -98 -57 -178l-428 428q80 57 178 57q127 0 217 -90t90 -217zM205 300q0 99 58 179l428 -428
q-80 -58 -179 -58q-127 0 -217 90t-90 217z" />
    <glyph glyph-name="uniE62B" unicode="&#xe62b;" 
d="M205 353q-32 0 -54.5 -23.5t-22.5 -56.5v-345q0 -33 22.5 -56.5t54.5 -23.5h614q32 0 54.5 23.5t22.5 56.5v345q0 33 -22.5 56.5t-54.5 23.5h-25h-77h-410v156q0 76 58.5 119.5t146.5 43.5t146.5 -43.5t58.5 -119.5v-23h77v27q0 99 -67.5 169t-163.5 70h-102
q-96 0 -163.5 -70t-67.5 -169v-160h-25z" />
    <glyph glyph-name="uniE62C" unicode="&#xe62c;" 
d="M957 416q-7 17 -25 17h-61q-42 113 -140.5 181.5t-219.5 68.5q-78 0 -149 -30q-68 -29 -121 -82t-82 -121q-31 -72 -31 -149.5t31 -149.5q29 -68 82 -121t121 -82q71 -30 149 -30q112 0 206 59q91 58 138 155q4 7 1.5 14.5t-9.5 10.5t-14.5 0.5t-10.5 -9.5
q-43 -87 -126 -139q-84 -54 -185 -54q-143 0 -244 101t-101 244.5t101 244.5t244 101q102 0 187 -54.5t127 -145.5q3 -9 4 -11l2 -19v-83q0 -19 17.5 -26t30.5 6l72 72q13 14 6 31z" />
    <glyph glyph-name="uniE62D" unicode="&#xe62d;" 
d="M282 745h-215v-215h215v215zM251 561h-153v153h138h15v-153zM527 163h-31v31h-31v-62h-30v92h30v61h-30v-30h-31v30h31v31h-31v61h31v31h-61v30h61v31h92v-31h30v31h31v31h-61v61h-31v-61h-92v-31h-30v31h-31v61h31v-61h30v61h31v31h30v30h-61v-30h-30v30h30v31h31v30h30
v-61h31v31h31v30h-31v31h31v31h-215v-31h31v-31h31v-30h-31v30h-31v-61h31v-30h-31v-92h-92v-31h92v-61h-30v-31h-31v31h31v30h-92v-30h30v-31h-30v31h-31v-31h-61v31h-31v-61h31v-31h-31v-31h62v62h30v-62h61v-30h-61v-31h123v31h-31v30h31v-30h30v-31h31v61h31v-61h-31
v-61h31v31h30v-31h-30v-31h-31v-30h31v-31h-31v31h-31v-92h62v30h122v62h61v-31h31v61h-61v31zM312 316h-122v31h122v-31zM374 316h-31v61h31v-61zM465 71h-61v31h61v-31zM588 683v62h-31v-31h-30v-31h61zM619 653v-31h-31v-30h61v30h31v31h30v61h-30v-31h-31v31h31v31h-61
v-62h-31v-30h31zM741 745v-215h214v215h-214zM925 561h-153v153h137h16v-153zM129 683h91v-91h-91v91zM802 683h92v-91h-92v91zM557 530h31v62h-31v30h31v31h-61v-92h30v-31zM465 592h31v-31h-31v31zM649 592h31v-31h-31v31zM435 561h30v-31h-30v31zM619 561h30v-31h-30v31z
M649 530v-30h61v61h-30v-31h-31zM588 530h31v-30h-31v30zM159 469h-30v31h-31v-92h61v61zM159 500h31v-31h-31v31zM741 469v-61h61v-31h31v61h-61v31h30v31h-92v-31h31zM833 500h61v-31h-61v31zM925 469h-31v-61h31v30h30v62h-30v-31zM588 469h61v-31h-61v31zM802 255h31v30
h-31v31h-61v31h31v30h-31v31h-31v61h-30v-31h-31v-30h31v-31h-31v-61h61v-61h-30v-31h30v-30h31v-31h31v-31h-31v31h-31v-31h-30v-30h-31v-31h31v-92h30v-30h92v-31h-30v-31h-31v-30h92v92h30v30h-30v153h-31v123zM741 224v61h31v-61h-31zM802 10h-92v92h92v-92zM465 438h62
v-30h-62v30zM557 408h-30v-31h61v61h-31v-30zM863 408h31v-31h-31v31zM925 408h30v-31h-30v31zM465 377h-30v-61h61v31h-31v30zM496 377h31v-30h-31v30zM557 347v-31h62v61h-31v-30h-31zM925 347h-62v-31h31v-61h31v30h30v31h-30v31zM527 316h30v-31h-30v31zM129 285h30v-30
h-30v30zM588 285h31v-30h-31v30zM649 285h31v-30h-31v30zM619 255h30v-31h-30v31zM833 255h30v-61h-30v61zM894 224v-30h-31v-31h62v-31h30v123h-30v-31h-31zM129 163v31h30v30h-92v-30h31v-31h-31v-31h31v-30h31v30h30v31h-30zM527 163h61v61h-92v-30h31v-31zM159 194v-31
h31v-31h30v62h-61zM251 194h31v-31h-31v31zM680 194h30v-31h-30v31zM282 163h61v-31h-61v31zM588 163h31v-31h-31v31zM833 163h30v-31h-30v31zM159 132h31v-30h-31v30zM220 132h62v-30h-62v30zM619 132h30v-30h-30v30zM863 102h31v-62h-31v-30h92v30h-30v31h30v31h-30v30
h-62v-30zM67 -143h215v214h-215v-214zM98 40h138h15v-153h-153v153zM588 71h31v-61h-31v61zM741 71h31v-31h-31v31zM619 -51v30h-62v61h-30v-30h-62v-31h-61v-30h61v-31h-91v-31h122v-30h31v30h30v31h-61v31h92v-92h31v61h30v31h-30zM129 10h91v-92h-91v92zM374 -21h-62v-30
h31v-31h31v61zM925 -21h30v-61h-30v61zM863 -51h31v-31h-31v31zM312 -82h31v-31h-31v31zM649 -82v-61h61v30h31v31h-92zM894 -82h31v-61h-31v61zM343 -113h31v-30h-31v30z" />
    <glyph glyph-name="uniE62E" unicode="&#xe62e;" horiz-adv-x="1025" 
d="M672 -2q-13 0 -22.5 -9.5t-9.5 -22.5v-30h-576v162q0 118 81.5 201t198.5 86q8 1 15 0q91 -2 164 -56q11 -8 24 -6t21 13t6 24t-13 21q-38 28 -84 46q58 33 92 91t34 127q0 104 -73.5 177.5t-177.5 73.5t-177.5 -73.5t-73.5 -177.5q0 -69 34 -127t92 -91
q-72 -28 -127 -84q-100 -102 -100 -245v-170q0 -23 16.5 -39.5t39.5 -16.5h592q23 0 39.5 16.5t16.5 39.5v37q0 14 -9.5 23.5t-22.5 9.5zM165 644.5q0 77.5 54.5 132.5t132.5 55t132.5 -55t54.5 -132.5t-54.5 -132.5t-132.5 -55t-132.5 55t-54.5 132.5zM877 256l138 137
q9 10 9 23t-9.5 22.5t-22.5 9.5t-23 -9l-137 -138l-137 138q-10 9 -23 9t-22.5 -9.5t-9.5 -22.5t9 -23l138 -137l-138 -137q-9 -10 -9 -23t9.5 -22.5t22.5 -9.5t23 9l137 138l137 -138q10 -9 23 -9t22.5 9.5t9.5 22.5t-9 23z" />
    <glyph glyph-name="uniE62F" unicode="&#xe62f;" 
d="M65 619h894v-149h-894v149zM63 371h894v-149h-894v149zM63 98h894v-149h-894v149zM63 98z" />
    <glyph glyph-name="uniE630" unicode="&#xe630;" 
d="M514 -91q-95 0 -182 37t-150 100t-100.5 150t-37.5 182.5t37.5 182t100.5 149.5t150 100.5t182 37.5t182 -37.5t150 -100.5t100 -149.5t37 -182t-37 -182.5t-100 -150t-150 -100t-182 -37zM514 816q-89 0 -170 -35t-139.5 -93.5t-93.5 -139.5t-35 -170t35 -170
t93.5 -139.5t139.5 -93t170 -34.5t170 34.5t139.5 93t93 139.5t34.5 170t-34.5 170t-93 139.5t-139.5 93.5t-170 35zM720 128h-160q-7 0 -11.5 4.5t-4.5 11.5v80h-48v-80q0 -7 -4.5 -11.5t-11.5 -4.5h-160q-7 0 -11.5 4.5t-4.5 11.5v192h-48q-10 0 -14.5 9.5t2.5 16.5
l265 309q5 5 12.5 5t12.5 -5l265 -309q7 -7 2.5 -16.5t-14.5 -9.5h-51v-192q0 -7 -4.5 -11.5t-11.5 -4.5zM576 160h128v192q0 7 4.5 11.5t11.5 4.5h32l-230 268l-231 -268h29q7 0 11.5 -4.5t4.5 -11.5v-192h128v80q0 7 4.5 11.5t11.5 4.5h80q7 0 11.5 -4.5t4.5 -11.5v-80z
" />
    <glyph glyph-name="uniE631" unicode="&#xe631;" 
d="M350 378v169q0 42 30 72.5t73 30.5h116q42 0 72 -30.5t30 -72.5v-169h87v169q0 78 -55.5 133.5t-133.5 55.5h-116q-78 0 -133.5 -55.5t-55.5 -133.5v-169h86zM817 -159h-613q-31 0 -52.5 21.5t-21.5 52.5v389q0 31 21.5 52.5t52.5 21.5h613q31 0 52.5 -21.5t21.5 -52.5
v-389q0 -31 -21.5 -52.5t-52.5 -21.5zM223 -66h575v351h-575v-351z" />
    <glyph glyph-name="uniE632" unicode="&#xe632;" 
d="M928 571h-180v2q0 50 -35 85t-84 35h-234q-49 0 -84 -35t-35 -85v-2h-180q-31 0 -63.5 -47t-32.5 -82v-423q0 -35 32 -78.5t64 -43.5h832q32 0 64 43.5t32 78.5v423q0 35 -32.5 82t-63.5 47zM512.5 10q-84.5 0 -147 60t-62.5 143.5t62.5 143.5t147 60t147 -60
t62.5 -143.5t-62.5 -143.5t-147 -60zM914 411h-85v46h85v-46zM512.5 341q-47.5 0 -80.5 -36t-33 -85q0 -50 33.5 -89t80.5 -39t80.5 39t33.5 89q0 49 -33.5 85t-81 36z" />
    <glyph glyph-name="uniE633" unicode="&#xe633;" 
d="M245 712h766v-64h-766v64zM511 121h500v-64h-500v64zM511 515h500v-64h-500v64zM511 318h500v-64h-500v64zM265 247l45 46l-1 1l1 1l-45 45l-1 -1l-173 173l-45 -45l173 -173l-173 -173l45 -45l173 173zM245 -76h766v-64h-766v64z" />
    <glyph glyph-name="uniE634" unicode="&#xe634;" 
d="M512 736q-91 0 -174 -35.5t-143 -95.5t-95.5 -143t-35.5 -174t35.5 -174t95.5 -143t143 -95.5t174 -35.5t174 35.5t143 95.5t95.5 143t35.5 174t-35.5 174t-95.5 143t-143 95.5t-174 35.5zM511.5 -70q-97.5 0 -180 48t-130 130.5t-47.5 179.5t47.5 180t130 130.5
t180 47.5t180 -47.5t130.5 -130.5t48 -180t-48 -179.5t-130.5 -130.5t-180 -48zM684 316l-232 134q-16 10 -32.5 0.5t-16.5 -28.5v-268q0 -19 16.5 -28t32.5 0l232 134q17 9 17 28t-17 28z" />
    <glyph glyph-name="uniE635" unicode="&#xe635;" 
d="M53 502h250v250h-250v-250zM387 502h250v250h-250v-250zM721 752v-250h250v250h-250zM53 168h250v250h-250v-250zM387 168h250v250h-250v-250zM721 168h250v250h-250v-250zM53 -166h250v250h-250v-250zM387 -166h250v250h-250v-250zM721 -166h250v250h-250v-250z" />
    <glyph glyph-name="uniE636" unicode="&#xe636;" 
d="M953 295l-198 262q-9 12 -23 12h-142v-58h127l184 -243v-354h-778v354l183 243h133v58h-147q-15 0 -23 -12l-198 -262q-6 -7 -6 -17v-393q0 -12 8.5 -20.5t20.5 -8.5h836q12 0 20.5 8.5t8.5 20.5v393q0 10 -6 17zM631 256v-92h-239v92q0 7 -5 12t-12 5h-147l115 156h4
q-4 18 4 35h-16q-9 0 -14 -7l-142 -191q-6 -8 -1.5 -18t15.5 -10h164v-91q0 -8 5 -13t13 -5h274q7 0 12 5t5 13v91h164q11 0 16 9.5t-2 18.5l-141 191q-5 7 -14 7h-11q8 -17 3 -36l115 -155h-147q-7 0 -12.5 -5t-5.5 -12zM382.5 449.5q-4.5 -9.5 1.5 -17.5l2 -3l114 -157
q5 -7 14 -7t14 7l115 157l2 3q6 8 1 17.5t-15 9.5h-76v5v47v58v103q0 17 -12 28.5t-29 11.5t-28.5 -11.5t-11.5 -28.5v-103v-58v-47v-5h-76q-11 0 -15.5 -9.5z" />
    <glyph glyph-name="uniE637" unicode="&#xe637;" 
d="M952 294l-198 262q-9 11 -24 11h-69l11 -14q14 -20 8 -44h36l184 -243v-354h-780v354l184 243h41q-6 24 9 44l10 14h-74q-15 0 -23 -11l-199 -262q-6 -8 -6 -18v-393q0 -12 8.5 -20.5t20.5 -8.5h838q12 0 20.5 8.5t8.5 20.5v393q0 10 -6 18zM373 127h275q7 0 12 5t5 13
v92h165q10 0 15 9.5t-1 17.5l-142 191q-6 7 -14 7h-100v-34h91l116 -157h-147q-8 0 -13 -5t-5 -12v-92h-240v92q0 7 -5 12t-12 5h-148l116 157h96v34h-104q-9 0 -14 -7l-142 -191q-7 -8 -2 -17.5t16 -9.5h164v-92q0 -8 5.5 -13t12.5 -5zM384 509q5 -4 12 -4h76v-43v-34v-136
q0 -17 12 -29t29 -12t28.5 12t11.5 29v136v34v43h76q7 0 12 4q3 3 4 5q5 10 -2 18l-25 35l-91 126q-5 7 -14 7t-14 -7l-91 -126l-26 -35q-6 -8 -1 -18q1 -2 3 -5z" />
    <glyph glyph-name="uniE638" unicode="&#xe638;" 
d="M886 604h-748q-31 0 -53 -22t-22 -53v-458q0 -31 22 -53t53 -22h748q31 0 53 22t22 53v458q0 31 -22 53t-53 22zM868 550l-298 -264q-39 -35 -58 -35t-58 35l-298 264h712zM119 88v414l233 -205zM158 50l234 207l38 -34q34 -29 82 -29t82 29l38 34l234 -207h-708zM905 88
l-233 209l233 205v-414zM905 88z" />
    <glyph glyph-name="uniE639" unicode="&#xe639;" 
d="M894 749l11 -228h-32q-21 111 -63 143q-38 32 -154 32h-74v-693q0 -75 21 -96q27 -21 111 -26v-27h-397v27q85 5 106 32q21 16 21 105v678h-74q-116 0 -153 -32q-43 -32 -64 -143h-31l10 228h762z" />
    <glyph glyph-name="uniE63A" unicode="&#xe63a;" 
d="M839.5 186.5q10.5 -34.5 10.5 -71.5q0 -126 -84.5 -193t-248.5 -67h-336v894h318q70 0 126.5 -16t96.5 -45.5t62 -72t22 -94.5q0 -66 -32 -112.5t-97 -78.5q43 -10 75.5 -31t54.5 -49.5t32.5 -63zM727 115q0 40 -10.5 69t-37 48t-70.5 28.5t-110 9.5h-200v-308h217
q211 0 211 153zM689 511q0 33 -10.5 57.5t-34.5 41t-62.5 24.5t-94.5 8h-188v-268h199q99 0 145 31.5t46 105.5z" />
    <glyph glyph-name="uniE63B" unicode="&#xe63b;" 
d="M702 137l-42 -42l229 -245l58 43zM301 622q-4 27 10.5 37.5t38.5 -1.5l158 -105l157 93q24 13 38 3t9 -37l-51 -208l133 -111q21 -19 15.5 -34.5t-33.5 -17.5h-193l-71 -165q-14 -25 -30.5 -24t-25.5 27l-69 166l-174 24q-27 6 -33.5 22t13.5 34l143 119zM317 738
q-35 20 -56.5 6t-16.5 -55l23 -220l-164 -147q-31 -27 -24.5 -52t45.5 -34l214 -45l85 -208q17 -40 43 -41.5t46 34.5l110 198l225 19q42 3 51.5 28t-19.5 57l-153 167l50 220q9 41 -11.5 57.5t-58.5 -1.5l-202 -95z" />
    <glyph glyph-name="uniE63C" unicode="&#xe63c;" horiz-adv-x="1025" 
d="M547 -102v465h-34v-465l-123 123l-24 -25l164 -164l164 164l-24 25zM838 500v4v4q0 110 -77.5 187.5t-186.5 77.5q-78 0 -142 -41.5t-97 -109.5q-29 14 -61 14q-50 0 -88 -32t-47 -81q-61 -21 -99.5 -74t-38.5 -120q0 -85 60 -144.5t145 -60.5h205v35h-205q-71 0 -121 50
t-50 120q0 55 32 99.5t84 62.5l19 6l3 20q6 37 34.5 61t66.5 24q24 0 46 -11l31 -15l15 31q28 60 85 95.5t123 35.5q95 0 162.5 -67.5t67.5 -162.5v-2v-5l-1 -35h35q63 0 108 -45.5t45 -108.5t-45 -108t-108 -45h-8h-181v-35h189q78 1 132.5 56t54.5 132.5t-55 132.5
t-132 55z" />
    <glyph glyph-name="uniE63D" unicode="&#xe63d;" 
d="M512 417q45 0 76.5 31.5t31.5 76t-31.5 76t-76.5 31.5t-76.5 -31.5t-31.5 -76t31.5 -76t76.5 -31.5zM512 581q23 0 39.5 -16.5t16.5 -40t-16.5 -40t-39.5 -16.5t-39.5 16.5t-16.5 40t16.5 40t39.5 16.5zM620 74.5q0 44.5 -31.5 76t-76.5 31.5t-76.5 -31.5t-31.5 -76
t31.5 -76t76.5 -31.5t76.5 31.5t31.5 76zM456 74.5q0 23.5 16.5 40t39.5 16.5t39.5 -16.5t16.5 -40t-16.5 -40t-39.5 -16.5t-39.5 16.5t-16.5 40zM736.5 194q44.5 0 76 31.5t31.5 76t-31.5 76t-76 31.5t-76 -31.5t-31.5 -76t31.5 -76t76 -31.5zM736.5 358q23.5 0 40 -16.5
t16.5 -40t-16.5 -40t-40 -16.5t-40 16.5t-16.5 40t16.5 40t40 16.5zM286.5 405q-44.5 0 -76 -31.5t-31.5 -76t31.5 -76t76 -31.5t76 31.5t31.5 76t-31.5 76t-76 31.5zM286.5 241q-23.5 0 -40 16.5t-16.5 40t16.5 40t40 16.5t40 -16.5t16.5 -40t-16.5 -40t-40 -16.5z
M949 -121h-223q66 34 120 87q65 66 101 150q37 88 37 184t-37 184q-36 84 -101.5 149.5t-149.5 101.5q-88 37 -184 37t-184 -37q-84 -36 -149.5 -101.5t-101.5 -149.5q-37 -88 -37 -184t37 -184q36 -84 101.5 -149.5t149.5 -101.5q88 -37 184 -37h7h2h428q11 0 18.5 7.5
t7.5 18t-7.5 18t-18.5 7.5zM214.5 2.5q-58.5 58.5 -90.5 133.5q-33 78 -33 164t33 164q32 75 90.5 133.5t133.5 90.5q78 33 164 33t164 -33q75 -32 133.5 -90.5t90.5 -133.5q33 -78 33 -164t-33 -164q-32 -75 -90.5 -133.5t-133.5 -90.5q-78 -33 -164 -33t-164 33
q-75 32 -133.5 90.5z" />
    <glyph glyph-name="uniE63E" unicode="&#xe63e;" 
d="M512 -132q-88 0 -169 34q-78 33 -138.5 93.5t-93.5 138.5q-34 81 -34 169.5t34 168.5q33 79 93.5 139t138.5 93q81 34 169 34t169 -34q78 -33 138.5 -93t93.5 -139q34 -80 34 -168.5t-34 -169.5q-33 -78 -93.5 -138.5t-138.5 -93.5q-81 -34 -169 -34zM512 687
q-77 0 -147 -29t-124.5 -83.5t-83.5 -124.5t-29 -147t29 -147t83.5 -124.5t124.5 -83.5t147 -29t147 29t124.5 83.5t83.5 124.5t29 147t-29 147t-83.5 124.5t-124.5 83.5t-147 29zM758 277h-492q-10 0 -17.5 7.5t-7.5 18t7.5 18t17.5 7.5h492q10 0 17.5 -7.5t7.5 -18
t-7.5 -18t-17.5 -7.5z" />
    <glyph glyph-name="uniE63F" unicode="&#xe63f;" 
d="M430 -125l564 565q23 23 27.5 65t-11.5 90q-15 47 -48 79l-65 66q-33 32 -80 48t-89 11t-65 -27l-563 -568l-99 -428zM780 507q30 -31 40.5 -78t-4.5 -77q0 -1 1 -3v-3l-316 -319q-20 23 -31 59t-11 66q-1 29 4 52l308 311zM688 713q24 27 80.5 19.5t93.5 -43.5l50 -50
q36 -36 43 -92.5t-19 -81.5l-48 -48q-9 77 -57 125l-66 66q-49 48 -126 57zM557 582q25 26 81 19t92 -43l8 -9l-308 -312q-23 -4 -53 -3.5t-66 11.5t-59 30zM158 179l56 57q37 -28 88 -45q51 -18 95 -19q0 -43 17.5 -95t45.5 -89l-55 -56l-157 -29q-16 47 -44.5 75.5
t-75.5 44.5z" />
    <glyph glyph-name="uniE640" unicode="&#xe640;" 
d="M870 740h-107v-112h107v-629h-685v629h105v112h-210v-112v-629v-105h105h685h108v105v629v112h-108zM529 106l234 268h-158v366h-152v-366h-159z" />
    <glyph glyph-name="uniE641" unicode="&#xe641;" 
d="M903 229h-782q-24 0 -41.5 17.5t-17.5 41.5t17.5 41.5t41.5 17.5h782q24 0 41.5 -17.5t17.5 -41.5t-17.5 -41.5t-41.5 -17.5z" />
    <glyph glyph-name="uniE642" unicode="&#xe642;" 
d="M823 648v-15q0 -9 -13 -9h-27q-13 0 -13 9v15q-16 -1 -27.5 -9t-11.5 -20v-44q0 -26 -24 -26h-386q-29 0 -29 30v40q0 11 -11 19.5t-27 9.5v-15q0 -9 -13 -9h-27q-13 0 -13 9v15q-17 -1 -28 -9.5t-11 -19.5v-641q0 -11 11 -19t28 -10v17q0 8 13 8h27q13 0 13 -8v-17
q16 2 27 10t11 19v0v0v0v1v0v1v0v1v0v1v1v1v1v1v1v1v1v1v1v1v9q0 18 6.5 26t22.5 8h387q14 0 18.5 -8t4.5 -23v-26q0 -11 11.5 -19.5t27.5 -9.5v17q0 8 13 8h27q13 0 13 -8v-17q16 1 27 9.5t11 19.5v641q0 12 -11 20t-27 9zM256 78q0 -6 -4 -10t-10 -4h-30q-5 0 -9.5 4
t-4.5 10v30q0 5 4.5 9.5t9.5 4.5h30q6 0 10 -4.5t4 -9.5v-30zM256 214q0 -6 -4 -10t-10 -4h-30q-5 0 -9.5 4t-4.5 10v30q0 6 4.5 10t9.5 4h30q6 0 10 -4t4 -10v-30zM256 350q0 -6 -4 -10t-10 -4h-30q-5 0 -9.5 4t-4.5 10v30q0 6 4.5 10t9.5 4h30q6 0 10 -4t4 -10v-30z
M256 486q0 -6 -4 -10t-10 -4h-30q-5 0 -9.5 4t-4.5 10v30q0 6 4.5 10t9.5 4h30q6 0 10 -4t4 -10v-30zM324 107q-32 0 -32 34v297v39h411q17 0 22.5 -7.5t5.5 -25.5v-311q0 -26 -21 -26h-386zM825 78q0 -6 -4 -10t-10 -4h-29q-6 0 -10.5 4t-4.5 10v29q0 6 4.5 10.5t10.5 4.5
h29q6 0 10 -4.5t4 -10.5v-29zM825 214q0 -6 -4 -10t-10 -4h-29q-6 0 -10.5 4t-4.5 10v30q0 5 4.5 9.5t10.5 4.5h29q6 0 10 -4.5t4 -9.5v-30zM825 350q0 -6 -4 -10t-10 -4h-29q-6 0 -10.5 4t-4.5 10v30q0 6 4.5 10t10.5 4h29q6 0 10 -4t4 -10v-30zM825 486q0 -5 -4 -9.5
t-10 -4.5h-29q-6 0 -10.5 4.5t-4.5 9.5v30q0 6 4.5 10t10.5 4h29q6 0 10 -4t4 -10v-30z" />
    <glyph glyph-name="uniE643" unicode="&#xe643;" 
d="M213 482h-145v-363h145l363 -181v725zM956 403l-51 51l-103 -102l-103 102l-51 -51l103 -103l-103 -102l51 -51l103 102l103 -102l51 51l-103 102z" />
    <glyph glyph-name="uniE644" unicode="&#xe644;" 
d="M512 -96l480 480h-288v512h-384v-512h-288z" />
    <glyph glyph-name="uniE645" unicode="&#xe645;" 
d="M512 748q-185 0 -316.5 -131.5t-131.5 -316.5t131.5 -316.5t316.5 -131.5t316.5 131.5t131.5 316.5t-131.5 316.5t-316.5 131.5zM512 684q136 0 241 -85l-540 -540q-85 105 -85 241q0 159 112.5 271.5t271.5 112.5zM512 -84q-145 0 -254 97l541 541q97 -109 97 -254
q0 -159 -112.5 -271.5t-271.5 -112.5z" />
    <glyph glyph-name="uniE646" unicode="&#xe646;" 
d="M847.5 -212q-68.5 0 -117.5 49l-216 216q-60 -21 -124 -21q-106 0 -196 52.5t-142 142t-52 195.5q0 72 26 140l13 35l220 -220q13 -13 33.5 -13t34.5 13l108 108q14 14 14 34t-14 34l-220 220l36 13q66 26 139 26q106 0 195.5 -52t142 -142t52.5 -196h-49
q0 93 -45.5 171.5t-124.5 124t-171 45.5q-44 0 -85 -10l164 -165q29 -28 29 -68.5t-29 -68.5l-108 -108q-27 -28 -68 -28t-69 28l-165 164q-10 -42 -10 -85q0 -92 45.5 -170.5t124 -124.5t171.5 -46q63 0 122 23l14 5l239 -238q33 -33 82.5 -33t82.5 33l11 11q34 34 34 82.5
t-34 82.5l-182 182l35 35l181 -182q49 -49 49 -117.5t-49 -117.5l-10 -10q-49 -49 -117.5 -49z" />
    <glyph glyph-name="uniE647" unicode="&#xe647;" 
d="M877 275l-320 -320q-18 -19 -45 -19t-45 19l-320 320q-19 18 -19 45t18.5 45.5t45.5 18.5t45 -19l211 -211v614q0 27 18.5 45.5t45.5 18.5t45.5 -18.5t18.5 -45.5v-614l211 211q19 19 45.5 19t45 -18.5t18.5 -45.5t-19 -45z" />
    <glyph glyph-name="uniE648" unicode="&#xe648;" 
d="M150 436l362 -362l-90 -91l-363 362zM331 74l543 543l91 -91l-544 -543z" />
    <glyph glyph-name="uniE649" unicode="&#xe649;" 
d="M439 -11v622q-85 0 -156.5 -42t-113 -113t-41.5 -156t41.5 -156t113 -113t156.5 -42zM878 300q0 -119 -59 -220t-160 -160t-220.5 -59t-220 59t-159.5 160t-59 220t59 220t159.5 160t220 59t220.5 -59t160 -160t59 -220z" />
    <glyph glyph-name="uniE64A" unicode="&#xe64a;" 
d="M26 -131q-11 -11 -18.5 -7.5t-7.5 17.5v842q0 14 7.5 17.5t18.5 -7.5l405 -405q5 -5 8 -11v406q0 14 7.5 17.5t18.5 -7.5l405 -405q5 -5 8 -11v387q0 15 10.5 26t25.5 11h73q15 0 26 -11t11 -26v-804q0 -15 -11 -26t-26 -11h-73q-15 0 -25.5 11t-10.5 26v387
q-3 -6 -8 -11l-405 -405q-11 -11 -18.5 -7.5t-7.5 17.5v406q-3 -6 -8 -11z" />
    <glyph glyph-name="uniE64B" unicode="&#xe64b;" 
d="M779 719q11 11 18.5 7.5t7.5 -17.5v-842q0 -14 -7.5 -17.5t-18.5 7.5l-406 405q-5 5 -7 11v-387q0 -15 -11 -26t-26 -11h-73q-15 0 -26 11t-11 26v804q0 15 11 26t26 11h73q15 0 26 -11t11 -26v-387q2 6 7 11z" />
    <glyph glyph-name="uniE64C" unicode="&#xe64c;" 
d="M245 -143q-11 -11 -18.5 -7.5t-7.5 17.5v842q0 14 7.5 17.5t18.5 -7.5l406 -405q4 -5 7 -11v387q0 15 11 26t26 11h73q15 0 26 -11t11 -26v-804q0 -15 -11 -26t-26 -11h-73q-15 0 -26 11t-11 26v387q-3 -6 -7 -11z" />
    <glyph glyph-name="uniE64D" unicode="&#xe64d;" 
d="M512 154q0 20 -11 39q-1 1 -9.5 13t-14.5 21.5t-14 25.5t-12 29q-2 9 -12 9t-12 -9q-4 -13 -12 -29t-14.5 -25.5t-14.5 -21.5t-9 -13q-11 -19 -11 -39q0 -31 21.5 -52t51.5 -21t51.5 21t21.5 52zM805 227q0 -121 -86 -207t-207 -86t-207 86t-86 207q0 83 47 157
q3 5 35.5 51.5t58 86.5t56.5 102t47 115q6 17 20 26.5t29 9.5t29.5 -9.5t19.5 -26.5q16 -53 47 -115t56.5 -102t58 -86.5t35.5 -51.5q47 -73 47 -157z" />
    <glyph glyph-name="uniE64E" unicode="&#xe64e;" 
d="M513 804q-103 0 -196 -40t-160.5 -107.5t-107 -160.5t-39.5 -195.5t39.5 -195.5t107 -160.5t160.5 -107t195.5 -39.5t195.5 39.5t160.5 107t107.5 160.5t40 195.5t-40 195.5t-107.5 160.5t-160.5 107.5t-195 40zM513 -130q-117 0 -216.5 57.5t-157 157t-57.5 216.5
t57.5 216t157 157t216.5 58t216 -58t157 -157t58 -216t-58 -216.5t-157 -157t-216 -57.5zM382 441h276v-298h-276v298zM680 161q0 -8 -5 -13t-13 -5h-287q-8 0 -13 5t-5 13v287q0 8 5 13t13 5h287q8 0 13 -5t5 -13v-287zM391 179h253v251h-253v-251z" />
    <glyph glyph-name="uniE64F" unicode="&#xe64f;" 
d="M787 557v69h-398v-69h126l-101 -538h-173v-68h90h225h83v68h-140l101 538h187z" />
    <glyph glyph-name="uniE650" unicode="&#xe650;" 
d="M512 812q-104 0 -199 -40.5t-163.5 -109t-109 -163.5t-40.5 -199t40.5 -198.5t109 -163t163.5 -109t199 -40.5t198.5 40.5t163 109t109 163t40.5 198.5t-40.5 199t-109 163.5t-163 109t-198.5 40.5zM511.5 -136q-88.5 0 -169 35t-139 93t-93 139t-34.5 169.5t34.5 169
t93 139t139 93t169 34.5t169.5 -34.5t139 -93t93 -139t35 -169t-35 -169.5t-93 -139t-139 -93t-169.5 -35zM714 480l-279 -279l-145 144q-11 11 -26.5 11t-26.5 -11t-11 -26.5t11 -26.5l171 -171q11 -11 26.5 -11t26.5 11l306 305q11 12 11 27.5t-11 26.5t-26.5 11
t-26.5 -11z" />
    <glyph glyph-name="uniE651" unicode="&#xe651;" 
d="M512 700q79 0 151 -30q70 -30 123.5 -83.5t83.5 -123.5q30 -72 30 -151t-30 -151q-30 -70 -83.5 -123.5t-123.5 -83.5q-72 -30 -151 -30t-151 30q-70 30 -123.5 83.5t-83.5 123.5q-30 72 -30 151t30 151q30 70 83.5 123.5t123.5 83.5q72 30 151 30zM512 760
q-122 0 -225 -60t-163 -163t-60 -225t60 -225t163 -163t225 -60t225 60t163 163t60 225t-60 225t-163 163t-225 60zM727 342h-185v185q0 12 -9 21t-21 9t-21 -9t-9 -21v-185h-185q-12 0 -21 -9t-9 -21t9 -21t21 -9h185v-185q0 -12 9 -21t21 -9t21 9t9 21v185h185q12 0 21 9
t9 21t-9 21t-21 9z" />
    <glyph glyph-name="uniE652" unicode="&#xe652;" 
d="M981 574v-548l-211 131q-4 3 -4 8q1 129 0 271q0 4 4 6q210 131 211 132zM936 107v386l-22 -13q-21 -14 -52.5 -33.5t-47.5 -29.5q-3 -2 -3 -6v-222q0 -4 4 -7q21 -13 121 -75zM43 641v-682h682v682h-682zM683 1h-598v598h598v-598z" />
    <glyph glyph-name="uniE653" unicode="&#xe653;" 
d="M516 345l-319 318h296v76h-349h-62h-13v-417h75v288l318 -318zM874 287v-288l-318 318l-54 -53l319 -318h-295v-76h348h62h14v417h-76z" />
    <glyph glyph-name="uniE654" unicode="&#xe654;" 
d="M48 -128h928q20 0 34 14t14 34v928q0 20 -14 34t-34 14h-928q-20 0 -34 -14t-14 -34v-928q0 -20 14 -34t34 -14zM32 848q0 7 4.5 11.5t11.5 4.5h928q7 0 11.5 -4.5t4.5 -11.5v-928q0 -7 -4.5 -11.5t-11.5 -4.5h-928q-7 0 -11.5 4.5t-4.5 11.5v928zM656 496q26 0 45 19
t19 45t-19 45t-45 19t-45 -19t-19 -45t19 -45t45 -19zM656 592q13 0 22.5 -9.5t9.5 -22.5t-9.5 -22.5t-22.5 -9.5t-22.5 9.5t-9.5 22.5t9.5 22.5t22.5 9.5zM144 96h736q7 0 11.5 4.5t4.5 11.5v640q0 7 -4.5 11.5t-11.5 4.5h-736q-7 0 -11.5 -4.5t-4.5 -11.5v-640
q0 -7 4.5 -11.5t11.5 -4.5zM160 128v180q0 1 1 1t1 1l164 164q6 6 15.5 6t15.5 -6l241 -241q4 -5 11 -5q6 0 11 5l124 117q6 7 15 7t15 -6l90 -98v-125h-704zM864 736v-436l-67 73q-15 16 -38 16q-22 0 -38 -16l-112 -106l-229 229q-16 15 -38.5 15t-38.5 -15l-143 -143v383
h704z" />
    <glyph glyph-name="uniE655" unicode="&#xe655;" 
d="M736 -128l-256 256l544 544l-224 224l-544 -544l-256 256v-736h736z" />
    <glyph glyph-name="uniE656" unicode="&#xe656;" 
d="M787 749l-531 -531v230q0 27 -18.5 45.5t-45.5 18.5t-45.5 -18.5t-18.5 -45.5v-384q0 -19 11 -35.5t29 -23.5q11 -5 24 -5h384q27 0 45.5 18.5t18.5 45.5t-18.5 45.5t-45.5 18.5h-230l531 531q19 19 19 45.5t-18.5 45t-45.5 18.5t-45 -19z" />
    <glyph glyph-name="uniE657" unicode="&#xe657;" 
d="M292 370q1 7 3.5 16t10 29t18.5 38t32 38.5t46.5 35.5t64.5 25t86 10h87h51v105l228 -153l-228 -152v88h-51h-215v-41h215h10v-124l343 229l-343 229v-140h-10h-87q-55 0 -101.5 -13t-76.5 -32t-54 -45t-36 -48t-20.5 -45.5t-10.5 -32t-2 -13.5l-1 -98h41v94zM865 -102
h-787v664h164v41h-205v-746h869v451h-41v-410z" />
    <glyph glyph-name="uniE658" unicode="&#xe658;" 
d="M512 812q-139 0 -257 -68.5t-186.5 -186.5t-68.5 -257t68.5 -257t186.5 -186.5t257 -68.5t257 68.5t186.5 186.5t68.5 257t-68.5 257t-186.5 186.5t-257 68.5zM832 252h-320q-15 0 -24 11q-8 9 -8 21v0v320q0 14 9.5 23t22.5 9t22.5 -9t9.5 -23v-288h288q14 0 23 -9.5
t9 -22.5t-9 -22.5t-23 -9.5z" />
    <glyph glyph-name="uniE659" unicode="&#xe659;" 
d="M736 576h-448q-119 0 -203.5 -84.5t-84.5 -203.5t84.5 -203.5t203.5 -84.5h448q119 0 203.5 84.5t84.5 203.5t-84.5 203.5t-203.5 84.5zM736 48h-448q-99 0 -169.5 70.5t-70.5 169.5t70.5 169.5t169.5 70.5h448q99 0 169.5 -70.5t70.5 -169.5t-70.5 -169.5t-169.5 -70.5z
M116 288q0 -73 51.5 -124.5t124.5 -51.5t124.5 51.5t51.5 124.5t-51.5 124.5t-124.5 51.5t-124.5 -51.5t-51.5 -124.5z" />
    <glyph glyph-name="uniE65A" unicode="&#xe65a;" 
d="M582 -91q-22 0 -38 16l-454 454q-22 20 -22 55l-18 395q0 8 6 14t14 6l395 -19q35 1 55 -21l454 -454q16 -16 16 -38t-16 -38l-33 -33q-5 -5 -12.5 -5t-13 5.5t-5.5 13t5 12.5l33 33q5 5 5 12t-5 12l-455 454q0 1 -1 1q-9 10 -27 10h-1l-376 17l17 -376v-1q0 -18 10 -28
h1l454 -455q5 -5 12 -5t12 5l219 219q4 4 11.5 9.5t29.5 14t46 8.5q7 0 12.5 -5.5t5.5 -13t-5.5 -13t-12.5 -5.5q-18 0 -33.5 -5.5t-20.5 -9.5t-7 -6l-219 -219q-16 -16 -38 -16zM225 606q-29 0 -49 20t-20 49t20 49t49 20t49.5 -20t20.5 -49t-20.5 -49t-49.5 -20z
M225.5 707q-13.5 0 -23 -9.5t-9.5 -23t9.5 -23t23 -9.5t23 9.5t9.5 23t-9.5 23t-23 9.5z" />
    <glyph glyph-name="uniE65B" unicode="&#xe65b;" 
d="M510.5 -64q-90.5 0 -173.5 35q-81 34 -142.5 95.5t-95.5 141.5q-35 83 -35 174t35 174q34 80 95.5 142t142.5 96q83 35 173.5 35t173.5 -35q80 -34 142 -96t96 -142q35 -83 35 -174t-35 -174q-34 -80 -96 -141.5t-142 -95.5q-83 -35 -173.5 -35zM510.5 766
q-76.5 0 -146.5 -29t-124.5 -83.5t-83.5 -124.5t-29 -146.5t29 -146.5t83.5 -124.5t124.5 -83.5t146.5 -29t146.5 29t124.5 83.5t83.5 124.5t29 146.5t-29 146.5t-83.5 124.5t-124.5 83.5t-146.5 29zM349 542h323v-320h-323v320z" />
    <glyph glyph-name="uniE65C" unicode="&#xe65c;" horiz-adv-x="1025" 
d="M1010 -131l-290 290h217q20 0 34 14t14 33.5t-14 33.5t-34 14h-332q-19 0 -33 -14t-14 -33v-332q0 -20 14 -34t33.5 -14t33.5 14t14 34v217l290 -290q14 -14 33.5 -14t33.5 14t14 33.5t-14 33.5zM417.5 773q-19.5 0 -33.5 -14t-14 -33v-217l-289 289q-14 14 -33.5 14
t-33.5 -14t-14 -33.5t14 -33.5l289 -289h-217q-19 0 -33 -14t-14 -33.5t14 -33.5t33 -14h331q20 0 34 14t14 34v331q0 19 -14 33t-33.5 14z" />
    <glyph glyph-name="uniE65D" unicode="&#xe65d;" 
d="M821 407h-114v-48h114q20 0 33.5 -14t13.5 -34v-338q0 -20 -13.5 -34t-33.5 -14h-619q-20 0 -34 14t-14 34v338q0 20 14 34t34 14h114v48h-114q-40 0 -67.5 -28t-27.5 -68v-338q0 -40 27.5 -67.5t67.5 -27.5h619q39 0 67 27.5t28 67.5v338q0 40 -28 68t-67 28zM355 491
l133 133v-446q0 -10 7 -17t16.5 -7t16.5 7t7 17v443l130 -130q7 -7 16.5 -7t16.5 7t7 17t-6 17l-172 172q-7 7 -17 7t-17 -7l-172 -172q-7 -7 -7 -17t7 -17t17 -7t17 7z" />
    <glyph glyph-name="uniE65E" unicode="&#xe65e;" 
d="M1024 608l-256 -256l-544 544l-224 -224l544 -544l-256 -256h736v736z" />
    <glyph glyph-name="uniE65F" unicode="&#xe65f;" 
d="M924 568h-141v153h-541v-153h-142q-18 0 -31 -13t-13 -32v-377h186v-64l205 -206h336v268h185v379q0 19 -13 32t-31 13zM294 669h436v-101h-436v101zM834 217h-51v103h-53v-392h-214q-13 0 -22 6.5t-14.5 17t-8.5 24.5t-3.5 29.5t-0.5 30.5t1.5 29t3 24.5t3 17t1.5 5.5
q-4 0 -10.5 -1.5t-25 -4.5t-35.5 -4.5t-38 0t-36 6t-26 15.5t-11 28v169h-52v-101h-52v176h644v-178zM872 459q-15 0 -25.5 10.5t-10.5 25t10.5 25t25 10.5t25 -10.5t10.5 -25t-10.5 -25t-24.5 -10.5zM668 313h-300v-52h300v52zM368 158h300v52h-300v-52zM368 158z" />
    <glyph glyph-name="uniE660" unicode="&#xe660;" 
d="M989 408h-335l125 125q-98 98 -236.5 98t-236.5 -98t-98 -236.5t98 -237t236.5 -98.5t236.5 98q8 8 16 17l84 -74q-63 -71 -150.5 -111.5t-185.5 -40.5q-91 0 -174 35t-142.5 95t-95 142.5t-35.5 173.5t35.5 173.5t95 142.5t142.5 95.5t173.5 35.5t172 -34.5t143.5 -96.5
l131 131v-335v0zM989 408z" />
    <glyph glyph-name="uniE661" unicode="&#xe661;" 
d="M697 -70h-370h-5q-2 0 -8 2t-11 5.5t-9 11.5t-4 18v185h37v-185h370v185h37v-185q0 -33 -33 -37h-4v0zM919 41h-111q-10 0 -18 4t-11 9t-5 11t-2.5 8.5t-0.5 4.5v111h-518v-111q0 -10 -4 -18t-9 -11.5t-11.5 -5.5t-8.5 -2h-4h-111h-5q-2 0 -8 2t-11 5.5t-9 11.5t-4 18
v407q0 17 9 26t19 10l9 1h185v111v5q0 2 2 8t5.5 11t11.5 9t18 4h370q10 0 18 -4t11.5 -8.5t5.5 -11t2 -8.5v-5v-111h185q17 0 26 -9t10 -19l1 -9v-407q0 -10 -4 -18t-9 -11.5t-11 -5.5t-8 -2h-5v0zM808 78h111v407h-814v-407h111v148h592v-148v0zM327 522h370v111h-370
v-111v0zM179 448q-15 0 -26 -11t-11 -26t11 -26t26 -11t26 11t11 26t-11 26t-26 11zM373 115q-9 0 -9 -9.5t9 -9.5t9 9.5t-9 9.5zM652 96h-231q-8 0 -8 9.5t8 9.5h231q8 0 8 -9.5t-8 -9.5v0zM373 41q-9 0 -9 -9.5t9 -9.5t9 9.5t-9 9.5zM652 22h-231q-8 0 -8 9.5t8 9.5h231
q8 0 8 -9.5t-8 -9.5v0zM652 22z" />
    <glyph glyph-name="uniE662" unicode="&#xe662;" 
d="M853 688q9 -9 17 -16.5t13.5 -12.5t14.5 -14q12 -11 19 -28.5t3.5 -41.5t-22.5 -43l-538 -538q-227 -95 -239 -100q-9 -3 -15 3.5t-2 15.5l99 230q506 508 539 541q26 23 58.5 23t52.5 -19zM139 -70l189 80l-109 105zM232 138l120 -116l397 397l-119 115zM648 553
l119 -116l53 52l-119 116zM718 624l120 -116l44 44q14 14 14.5 35t-17.5 40q-11 12 -41 40q-14 14 -37 14.5t-38 -13.5z" />
    <glyph glyph-name="uniE663" unicode="&#xe663;" 
d="M994 299q53 -62 1 -120l-371 -373q-12 -9 -26 -13.5t-28.5 -3t-27 6t-20.5 13.5q-134 134 -240 241l-88 90q-45 43 -79 77q-35 36 -56 57l-22 23q-3 2 -8.5 10t-11.5 20.5t-10.5 28t-4.5 33.5v21v42q1 26 2 56v61q1 73 3 161q2 15 5 29.5t15 27.5q12 12 27 16t27 4h364
q3 1 17 0.5t18 -2.5q7 -3 16 -9t15 -12zM177 563q31 0 52.5 21.5t21.5 52.5t-21.5 52.5t-52.5 21.5t-53.5 -21.5t-22.5 -52.5t22.5 -52.5t53.5 -21.5z" />
    <glyph glyph-name="uniE664" unicode="&#xe664;" 
d="M877 404zM769 -64h-577q-40 0 -68 28t-28 68v642q0 39 28 67.5t68 28.5h449q14 0 23 -9.5t9 -22.5t-9 -22.5t-23 -9.5h-449q-13 0 -22.5 -9.5t-9.5 -22.5v-642q0 -13 9.5 -22.5t22.5 -9.5h578q13 0 22.5 9.5t9.5 22.5v513q0 14 9 23t22.5 9t23 -9t9.5 -23v-513
q0 -40 -28.5 -68t-68.5 -28zM581 449q-13 0 -22.5 9.5t-9.5 22.5t9 23l319 319q10 9 23 9t22.5 -9.5t9.5 -22.5t-10 -23l-318 -318q-10 -10 -23 -10zM449 449h-193q-13 0 -22.5 9.5t-9.5 22.5t9.5 22.5t22.5 9.5h193q13 0 22.5 -9.5t9.5 -22.5t-9.5 -22.5t-22.5 -9.5z
M641 257h-385q-13 0 -22.5 9t-9.5 22.5t9.5 23t22.5 9.5h385q13 0 22.5 -9.5t9.5 -23t-9 -22.5t-23 -9zM641 257z" />
    <glyph glyph-name="uniE665" unicode="&#xe665;" 
d="M865 433zM568 1v248v441h165q22 0 33.5 -1t24.5 -7t19 -15t13.5 -29.5t13 -46.5t13.5 -70h50l-31 227h-713l-33 -227h50q8 44 13.5 69.5t13 46.5t14 30t19 15t24.5 7t35 1h164v-441v-248q0 -28 -0.5 -42.5t-5.5 -28t-11.5 -19t-23 -10t-34.5 -5t-51 -0.5v-43h365v43
q-34 0 -52 0.5t-34.5 5t-22.5 9.5t-11 19.5t-6 28.5t-1 42zM698 13h261v-58h-261v58z" />
    <glyph glyph-name="uniE666" unicode="&#xe666;" 
d="M865 433zM568 1v248v441h165q22 0 33.5 -1t24.5 -7t19 -15t13.5 -29.5t13 -46.5t13.5 -70h50l-31 227h-713l-33 -227h50q8 44 13.5 69.5t13 46.5t14 30t19 15t24.5 7t35 1h164v-441v-248q0 -28 -0.5 -42.5t-5.5 -28t-11.5 -19t-23 -10t-34.5 -5t-51 -0.5v-43h365v43
q-34 0 -52 0.5t-34.5 5t-22.5 9.5t-11 19.5t-6 28.5t-1 42zM959 13h-102v101h-58v-101h-101v-58h101v-102h58v102h102v58z" />
    <glyph glyph-name="uniE667" unicode="&#xe667;" horiz-adv-x="1926" 
d="M805 -200l-36 17l458 980l9 2q4 1 13 3.5t32.5 5t47.5 1.5t55.5 -9.5t59 -24.5t55 -46.5t46.5 -73.5q17 -37 45.5 -67t58.5 -49t66 -33.5t64 -21.5t56.5 -11.5t39 -5t16.5 -0.5l30 -1l-178 -382h-13q-8 0 -20.5 1t-44 6t-61.5 12.5t-69.5 24t-72 37.5t-63.5 55.5
t-50 75.5q-20 45 -50.5 74t-58.5 40.5t-60.5 15t-50.5 1t-33 -5.5zM1120 -200l36 17l-458 980l-9 2q-4 1 -13 3.5t-32.5 5t-47.5 1.5t-55 -9.5t-58.5 -24.5t-55.5 -46.5t-47 -73.5q-17 -37 -45 -67t-58.5 -49t-66.5 -33.5t-64 -21.5t-56.5 -11.5t-39 -5t-15.5 -0.5l-31 -1
l178 -382h13q8 0 20.5 1t44 6t62 12.5t69.5 24t71.5 37.5t63.5 55.5t50 75.5q20 45 50.5 74t58.5 40.5t60.5 15t50.5 1t33 -5.5z" />
    <glyph glyph-name="uniE668" unicode="&#xe668;" 
d="M928 -148h-832q-40 0 -68 28t-28 68v704q0 40 28 68t68 28h832q40 0 68 -28t28 -68v-704q0 -40 -28 -68t-68 -28zM96 684q-13 0 -22.5 -9.5t-9.5 -22.5v-704q0 -13 9.5 -22.5t22.5 -9.5h832q13 0 22.5 9.5t9.5 22.5v704q0 13 -9.5 22.5t-22.5 9.5h-832zM64 492h896v-64
h-896v64zM192 684h64v-192h-64v192zM384 684h64v-192h-64v192zM576 684h64v-192h-64v192zM768 684h64v-192h-64v192zM438 293q-54 27 -54 -43v-154q0 -69 54 -42l163 85q29 14 30.5 34t-26.5 35z" />
    <glyph glyph-name="uniE669" unicode="&#xe669;" 
d="M304 286h-304v-83h304v83zM750 574l-40 72h-93l-35 -72l-278 -620h111l106 249h290l102 -249h111zM556 286l112 263l108 -263h-220z" />
    <glyph glyph-name="uniE66A" unicode="&#xe66a;" 
d="M173 -114q-3 -16 -14.5 -26t-24.5 -8t-20.5 15.5t-4.5 29.5l138 842q4 16 15 26t24 9q13 -2 21 -15.5t4 -29.5zM553 524q0 -8 -9 -14.5t-21 -6.5q-13 0 -21.5 6t-8.5 15v194q0 8 8.5 14.5t21.5 6.5t21.5 -5.5t8.5 -15.5v-194zM553 204q0 -10 -9 -16.5t-21 -6.5
q-13 0 -21.5 6.5t-8.5 16.5v218q0 9 8.5 16t21.5 7q12 0 21 -7t9 -16v-218zM553 -125q0 -9 -9 -16t-21 -7q-13 0 -21.5 7t-8.5 16v218q0 10 8.5 17t21.5 7q12 0 21 -7t9 -17v-218zM853 -116q4 -16 15 -26t24 -8q13 1 21 15t4 30l-138 842q-4 16 -15 26t-24 8
q-14 -3 -21.5 -15.5t-3.5 -28.5z" />
    <glyph glyph-name="uniE66B" unicode="&#xe66b;" 
d="M426 542l-110 83l-94 -24l110 -83zM948 674l-26 104l-94 -23l110 -83zM629 593l-110 83l-94 -24l109 -83zM829 644l-109 83l-93 -23l110 -83zM951 483v0h-29l-85 -106h-112l84 106h-97l-85 -106h-112l85 106h-98l-84 -106h-112l84 106h-95l-85 -106h-112l81 102l45 11
l-110 83l-27 -7h-3v-189v-67v-429h868v438v58v106h-1zM551 229h190v-72h-190v72zM177 230h340v-72h-340v72zM590 54h-414v72h414v-72zM862 53h-231v72h231v-72z" />
    <glyph glyph-name="uniE66C" unicode="&#xe66c;" horiz-adv-x="1515" 
d="M1247 645q-7 2 -14 2q-16 0 -26 -10l-230 -230v94q0 68 -48.5 116.5t-116.5 48.5h-402q-68 0 -116.5 -48.5t-48.5 -116.5v-402q0 -68 48.5 -116.5t116.5 -48.5h402q68 0 116.5 48.5t48.5 116.5v95l230 -231q11 -10 26 -10q7 0 14 2q22 10 22 34v622q0 24 -22 34z" />
    <glyph glyph-name="uniE66D" unicode="&#xe66d;" 
d="M410.5 503q-16.5 0 -28 -11.5t-11.5 -28.5v-309q0 -17 11.5 -28.5t28 -11.5t28 11.5t11.5 28.5v309q0 17 -11.5 28.5t-28 11.5zM946 488q-35 83 -99 147t-147 99q-85 36 -179 36t-180 -36q-83 -35 -147 -99t-99 -147q-36 -86 -36 -179.5t36 -179.5q35 -83 99 -147
t147 -99q86 -36 180 -36t179 36q83 35 147 99t99 147q36 86 36 179.5t-36 179.5zM675 -58q-74 -31 -154.5 -31t-154.5 31q-71 31 -126 86t-85 126q-32 74 -32 154.5t32 154.5q30 71 85 126t126 86q74 31 154.5 31t154.5 -31q72 -31 127 -86t85 -126q31 -74 31 -154.5
t-31 -154.5q-30 -71 -85 -126t-127 -86zM631 503q-16 0 -27.5 -11.5t-11.5 -28.5v-309q0 -17 11.5 -28.5t27.5 -11.5t27.5 11.5t11.5 28.5v309q0 17 -11.5 28.5t-27.5 11.5z" />
    <glyph glyph-name="uniE66E" unicode="&#xe66e;" 
d="M887 232l-695 -437h-1h-2q-3 -2 -11 -4q-7 -2 -10 -2q-1 0 -2 -1h-1q-2 0 -4 0.5t-3 0.5q-7 1 -11 3q-4 1 -9.5 4.5t-8.5 5.5q-3 3 -8 9l-2 2t-2 3q-1 1 -1 2v1q-1 2 -3 9q-3 8 -3 14v1v914v1q0 6 3 14q2 7 3 9v1q0 1 1 2q0 1 2 3l2 2q5 6 8 9q3 2 8.5 5.5t9.5 4.5
q3 2 11 3q1 0 3 0.5t4 0.5h1q1 -1 2 -1q3 0 10 -2q8 -2 11 -4h2h1l695 -437q18 -10 24 -29.5t-1 -38.5q7 -19 1 -38.5t-24 -29.5zM219 651v-702l570 351z" />
    <glyph glyph-name="uniE66F" unicode="&#xe66f;" 
d="M158 77l-87 -11q-2 15 -3.5 38t1 85.5t12.5 119t38.5 126t72.5 119.5q113 127 318 127q212 0 326 -130q43 -50 70.5 -119t37 -125.5t11 -118t-0.5 -84.5t-4 -37l-87 12q1 12 2.5 30.5t1 73t-8 103t-30.5 107.5t-59 100q-87 101 -259 101q-165 0 -252 -99
q-37 -41 -60.5 -100t-31.5 -109.5t-10 -103t-0.5 -74.5t2.5 -31zM804 -80h-117v322h117v-322v0zM335 -80h-117v322h117v-322v0z" />
    <glyph glyph-name="uniE670" unicode="&#xe670;" 
d="M283 704l155 -247q10 -16 27.5 -9t12.5 26l-62 247q-4 17 -21 17h-93q-13 0 -19.5 -11.5t0.5 -22.5zM562 158l425 595q8 11 2 23t-20 12h-914q-14 0 -20 -12t2 -23l421 -589q4 -6 4 -13v-291q0 -9 -6.5 -15.5t-15.5 -6.5h-156q-9 0 -15.5 -6.5t-6.5 -15.5v-6
q0 -9 6.5 -15.5t15.5 -6.5h456q9 0 15.5 6.5t6.5 15.5v6q0 9 -6.5 15.5t-15.5 6.5h-156q-9 0 -15.5 6.5t-6.5 15.5v298zM477 288l-291 415q-7 11 -1 23t19 12h616q13 0 19 -12t-1 -23l-284 -406q-7 -9 -19 -9h-58z" />
    <glyph glyph-name="uniE671" unicode="&#xe671;" 
d="M779 -125q-5 0 -9 3l-258 187l-258 -187q-9 -7 -17.5 -0.5t-5.5 16.5l98 304l-257 187q-9 6 -6 16.5t14 10.5h319l99 303q3 11 14 11t14 -11l99 -303h319q11 0 14 -10.5t-5 -16.5l-258 -187l98 -304q4 -10 -5 -16q-4 -3 -9 -3z" />
    <glyph glyph-name="uniE672" unicode="&#xe672;" 
d="M669 -64q-3 11 -12.5 18t-20.5 7h-74v126q-29 -5 -57.5 -5t-57.5 5v-126h-73q-12 0 -21.5 -7t-12.5 -18l-26 -94q-5 -17 5.5 -31t28.5 -14h314q14 0 24.5 10.5t10.5 24.5q0 7 -3 14zM857 683q-14 4 -29 4q-6 0 -13 -1v93q0 14 -9.5 23.5t-23.5 9.5h-555q-14 0 -23.5 -9.5
t-9.5 -23.5v-93q-7 1 -13 1q-15 0 -29 -4q-57 -15 -83.5 -78t-7.5 -137q17 -64 61.5 -104.5t95.5 -40.5h10q3 -7 8 -16l1 -2q6 -12 13 -22q1 -2 2 -3q7 -11 15 -21v-1q17 -21 37 -39v-1q9 -8 20 -17q1 0 1 -1q44 -33 96 -49q13 -4 26 -7q14 -3 28 -4h1q15 -2 28.5 -2t28.5 2
h1q13 1 28 4v0q13 3 26 7h1q51 16 95 49l1 1q10 8 20 17v1q20 18 37 39v1q8 10 15 21q2 2 2 3q7 10 13 22q1 1 1 2q5 8 8 16h11q50 0 94.5 40.5t61.5 104.5q19 74 -7.5 137t-83.5 78zM115 482q-13 51 2 94.5t49 52.5q7 2 15 2q6 0 13 -1v-155q0 -13 2 -28v-4q1 -12 3 -26
l1 -1v-3q2 -14 5 -26l1 -3q1 -3 1 -5q-29 5 -55 34t-37 69zM674 546l-92 -70l33 -109q3 -8 -3 -12q-3 -2 -6.5 -2t-5.5 2l-95 66l-96 -66q-6 -4 -12 0t-3 12l33 109l-92 70q-6 4 -3.5 11.5t9.5 7.5l116 2l38 109q2 7 9.5 7t9.5 -7l38 -109l116 -2q8 0 10 -7.5t-4 -11.5z
M894 482q-11 -40 -36.5 -69t-55.5 -34q0 2 1 5l1 3q3 13 5 26q1 1 1 4q2 14 3 26q0 1 1 4q1 15 1 28v155q7 1 13 1q8 0 15 -2q34 -9 49.5 -52.5t1.5 -94.5z" />
    <glyph glyph-name="uniE673" unicode="&#xe673;" 
d="M160 108h128v-128h-128v128zM352 236h128v-256h-128v256zM544 428h128v-448h-128v448zM736 620h128v-640h-128v640z" />
    <glyph glyph-name="uniE674" unicode="&#xe674;" 
d="M389 505h488q33 0 57 24t24 57.5t-24 57.5t-57 24h-488q-34 0 -58 -24t-24 -57.5t24 -57.5t58 -24zM389 627h488q16 0 28 -11.5t12 -28.5t-12 -29t-28 -12h-488q-17 0 -29 12t-12 29t12 28.5t29 11.5zM877 383h-488q-34 0 -58 -23.5t-24 -57.5t24 -57.5t58 -23.5h488
q33 0 57 23.5t24 57.5t-24 57.5t-57 23.5zM877 262h-488q-17 0 -29 11.5t-12 28.5t12 29t29 12h488q16 0 28 -12t12 -29t-12 -28.5t-28 -11.5zM144.5 383q-33.5 0 -57.5 -23.5t-24 -57.5t24 -57.5t57.5 -23.5t57.5 23.5t24 57.5t-24 57.5t-57.5 23.5zM145 262
q-17 0 -29 11.5t-12 28.5t12 29t29 12t28.5 -12t11.5 -29t-11.5 -28.5t-28.5 -11.5zM144.5 99q-33.5 0 -57.5 -24t-24 -57.5t24 -57.5t57.5 -24t57.5 24t24 57.5t-24 57.5t-57.5 24zM145 -23q-17 0 -29 12t-12 28.5t12 28.5t29 12t28.5 -12t11.5 -28.5t-11.5 -28.5
t-28.5 -12zM144.5 668q-33.5 0 -57.5 -24t-24 -57.5t24 -57.5t57.5 -24t57.5 24t24 57.5t-24 57.5t-57.5 24zM145 546q-17 0 -29 12t-12 29t12 28.5t29 11.5t28.5 -11.5t11.5 -28.5t-11.5 -29t-28.5 -12zM877 99h-488q-34 0 -58 -24t-24 -57.5t24 -57.5t58 -24h488
q33 0 57 24t24 57.5t-24 57.5t-57 24zM877 -23h-488q-17 0 -29 12t-12 28.5t12 28.5t29 12h488q16 0 28 -12t12 -28.5t-12 -28.5t-28 -12z" />
    <glyph glyph-name="uniE675" unicode="&#xe675;" 
d="M148 -62h276h-276zM217 145h138v-138h-138v138zM562 282h69v-275h-69v275zM80 -131h413v413h-413v-413zM148 -62v275h276v-275h-276zM562 -62h138v-69h-138v69zM906 145h69v-69h-69v69zM769 282h206v-69h-206v69zM700 627h138v-138h-138v138zM975 765h-413v-414h413v414z
M906 420h-275v276h275v-276zM80 351h413v414h-413v-414zM148 696h276v-276h-276v276zM906 -62h-137v-69h206v138h-69v-69zM700 145v-138h138v69h-69v69h-69zM217 627h138v-138h-138v138z" />
    <glyph glyph-name="uniE676" unicode="&#xe676;" 
d="M512 -209q-103 0 -197.5 40.5t-162.5 108.5t-108.5 162.5t-40.5 197.5t40.5 197.5t108.5 162.5t162.5 108.5t197.5 40.5t197.5 -40.5t162.5 -108.5t108.5 -162.5t40.5 -197.5t-40.5 -197.5t-108.5 -162.5t-162.5 -108.5t-197.5 -40.5zM512 800q-102 0 -194.5 -39.5
t-159.5 -106.5t-106.5 -160t-39.5 -194q0 -102 39.5 -194.5t106.5 -159.5t159.5 -106.5t194.5 -39.5t194.5 39.5t159.5 106.5t106.5 159.5t39.5 194.5q0 101 -39.5 194t-106.5 160t-159.5 106.5t-194.5 39.5zM270 172q-8 0 -14 6q-8 11 -2 22l16 31q-67 55 -67 135
q0 78 64 134t154 56v0q78 0 138.5 -43t74.5 -110l1 -5h-5q-85 0 -145 -53q-62 -53 -62 -131q0 -18 3 -31l1 -5h-5q-49 0 -91 17l-52 -21q-5 -2 -9 -2zM421 546q-86 0 -147.5 -53t-61.5 -128q0 -78 66 -131l2 -3l-19 -36q-3 -6 2 -12q5 -5 12 -2l55 22l2 -1q39 -16 84 -17
q-2 14 -2 28q0 81 65 137q62 54 146 55q-16 62 -73.5 101.5t-130.5 39.5zM762 16q-10 0 -17 4l-34 14q-37 -14 -79 -14q-54 0 -103 23t-82 68t-33 102t33 102t82 68t103 23t103 -23t81.5 -68t32.5 -102q0 -70 -50 -123l3 -7q16 -28 -6 -51q-13 -16 -34 -16zM711 43l38 -15
q10 -4 21.5 -1.5t19.5 11.5q17 19 5 42l-7 12l3 3q50 52 50 120q0 54 -31.5 97.5t-79 65t-99 21.5t-99 -22t-79 -65.5t-31.5 -98t31.5 -98t79 -65t98.5 -21.5q42 0 78 13zM500.5 470q-10.5 0 -18 -8t-7.5 -18.5t7.5 -18t18 -7.5t18 7.5t7.5 18t-7.5 18.5t-18 8zM344.5 470
q-10.5 0 -18.5 -8t-8 -18.5t8 -18t18.5 -7.5t18 7.5t7.5 18t-7.5 18.5t-18 8zM708.5 307q-10.5 0 -18 -7.5t-7.5 -18.5t7.5 -18.5t18 -7.5t18.5 7.5t8 18.5t-8 18.5t-18.5 7.5zM552.5 307q-10.5 0 -18 -7.5t-7.5 -18.5t7.5 -18.5t18 -7.5t18 7.5t7.5 18.5t-7.5 18.5t-18 7.5
z" />
    <glyph glyph-name="uniE677" unicode="&#xe677;" 
d="M947 -212h-870q-32 0 -54.5 22.5t-22.5 54.5v870q0 32 22.5 54.5t54.5 22.5h870q32 0 54.5 -22.5t22.5 -54.5v-870q0 -32 -22.5 -54.5t-54.5 -22.5zM77 761q-11 0 -18.5 -7.5t-7.5 -18.5v-870q0 -11 7.5 -18.5t18.5 -7.5h870q11 0 18.5 7.5t7.5 18.5v870q0 11 -7.5 18.5
t-18.5 7.5h-870zM665.5 351q-42.5 0 -72.5 30t-30 72.5t30 72.5t72.5 30t72.5 -30t30 -72.5t-30 -72.5t-72.5 -30zM665.5 505q-21.5 0 -36.5 -15t-15 -36.5t15 -36.5t36.5 -15t36.5 15t15 36.5t-15 36.5t-36.5 15zM896 710h-768q-11 0 -18.5 -7.5t-7.5 -18.5v-614
q0 -11 7.5 -18.5t18.5 -7.5h768q11 0 18.5 7.5t7.5 18.5v614q0 11 -7.5 18.5t-18.5 7.5zM154 213l164 185q6 8 15 8t16 -7l283 -304h-478v118zM870 95h-168l-316 339q-22 23 -53.5 23t-52.5 -25l-126 -141v367h716v-563z" />
    <glyph glyph-name="uniE678" unicode="&#xe678;" 
d="M811 150l-48 -48q20 0 34 14t14 34zM605 680h13q-7 1 -13 0zM845 198h15q-8 1 -15 0zM522 632l-48 -48q20 0 34 14t14 34zM891 556l-156 156q-28 28 -68 28v-164q-160 -31 -242 -89q-26 -21 -51 -59t-41 -76t-28.5 -74t-18 -57.5t-5.5 -22.5q2 3 7.5 8.5t24.5 22t41 32.5
t58.5 35.5t76.5 35.5q53 13 97.5 15.5t62.5 -0.5l18 -4v-157q39 0 68 29l204 204q44 44 -48 137zM762 130v-3q-1 -4 0 -2q1 -3 5 2t16 14t28 9h-48q-1 -12 -1 -20zM845 198h-34q0 -9 -1 -19v-6l1 1q12 21 34 24zM811 102h-48v-97h-579v579h241q19 0 32.5 12.5t15.5 30.5
q0 3 1 5q0 -2 -1 -5q0 -6 -1 -14l1 -6l1 2q16 27 48 23h48v25l3 4q0 1 3 4l4 4q3 3 5 4q2 2 8 4q5 2 6 2q3 1 6 1h-421q-40 0 -68 -28t-28 -68v-579q0 -40 28 -68t68 -28h579q40 0 68.5 28t28.5 68v145h-49v-48z" />
    <glyph glyph-name="uniE679" unicode="&#xe679;" horiz-adv-x="1118" 
d="M657 631q-29 80 -96 130.5t-150 50.5q-109 0 -185 -81.5t-76 -196.5q0 -70 30 -130t82 -97q-117 -49 -189 -159.5t-72 -247.5h73q0 136 86 238t211 117l6 1q6 0 14.5 0.5t18.5 0.5t22.5 -0.5t22.5 -1.5h4q32 -5 63 -16q-25 49 -30 105q-39 -18 -81 -18q-82 0 -139.5 61
t-57.5 147.5t57.5 147.5t139.5 61q65 0 117 -40.5t71 -105.5q27 21 58 34zM856 193q52 37 82 97t30 130q0 116 -77 197.5t-186 81.5q-108 0 -184.5 -81t-76.5 -196q0 -70 30.5 -130t82.5 -98q-117 -49 -189 -159t-72 -247h73q0 136 86 237.5t211 117.5l6 1q5 0 13.5 0.5
t19 0.5t23 -0.5t22.5 -1.5h4q123 -19 205.5 -119t82.5 -234h75q-1 135 -73.5 245t-187.5 158zM705 213q-81 0 -138.5 61t-57.5 148t57.5 148t139 61t139 -61t57.5 -148t-57.5 -148t-139.5 -61z" />
    <glyph glyph-name="uniE67A" unicode="&#xe67a;" 
d="M26 -19q-10 0 -17 7t-7 17v657q0 16 16 22q107 39 247 39q128 0 249 -39q16 -5 16 -22v-652q0 -10 -7 -17t-17 -7q-2 0 -5 1q-125 28 -253 28q-126 0 -214 -32q-4 -2 -8 -2zM38 653v-631q89 29 210 29t246 -26v628q-111 35 -229 35q-125 0 -227 -35zM519 -19q-10 0 -17 7
t-7 17v657q0 16 16 22q107 39 247 39q128 0 249 -39q16 -5 16 -22v-652q0 -10 -7 -17t-17 -7q-2 0 -5 1q-125 28 -253 28q-126 0 -214 -32q-4 -2 -8 -2zM531 653v-631q89 29 210 29t246 -26v628q-111 35 -229 35q-125 0 -227 -35zM116 512q-2 7 2 13.5t11 8.5q41 9 85 13
q109 10 188 -12q8 -2 11.5 -9t1.5 -14q-3 -7 -9 -10t-13 -2q-107 30 -256 -1q-7 -2 -13.5 2t-7.5 11zM116 366q-2 7 2 13.5t11 8.5q41 9 85 13q109 10 188 -12q8 -2 11.5 -9t1.5 -14q-3 -7 -9 -10.5t-13 -1.5q-107 30 -256 -1q-7 -2 -13.5 2t-7.5 11zM116 231q-2 7 2 13.5
t11 8.5q41 9 85 13q109 10 188 -12q8 -2 11.5 -9t1.5 -14q-3 -7 -9 -10.5t-13 -1.5q-107 30 -256 -1q-7 -2 -13.5 2t-7.5 11zM609 512q-1 7 3 13.5t11 8.5q41 9 85 13q108 10 188 -12q8 -2 11.5 -9t0.5 -14q-2 -7 -8 -10t-13 -2q-108 30 -256 -1q-7 -2 -13.5 2t-8.5 11z
M609 366q-1 7 3 13.5t11 8.5q41 9 85 13q108 10 188 -12q8 -2 11.5 -9t0.5 -14q-2 -7 -8 -10.5t-13 -1.5q-108 30 -256 -1q-7 -2 -13.5 2t-8.5 11zM609 231q-1 7 3 13.5t11 8.5q41 9 85 13q108 10 188 -12q8 -2 11.5 -9t0.5 -14q-2 -7 -8 -10.5t-13 -1.5q-108 30 -256 -1
q-7 -2 -13.5 2t-8.5 11z" />
    <glyph glyph-name="uniE67B" unicode="&#xe67b;" 
d="M390 495q0 30 -21 51.5t-51.5 21.5t-52 -21.5t-21.5 -52t21.5 -51.5t52 -21t51.5 21t21 52zM390 495zM634 121h60v60q0 33 18 60t47 41l-10 34v3l-66 200l-231 -298l-62 105l-246 -248h362h41q33 43 87 43zM1024 648q0 68 -48 116t-116 48h-696q-68 0 -116 -48t-48 -116
v-696q0 -68 48 -116t116 -48h491h1q12 0 21 9t9 21.5t-9 21.5t-21 9h-1h-491q-43 0 -73 30t-30 73v696q0 43 30 73t73 30h696q43 0 73 -30t30 -73v-488q0 -1 -1 -1q0 -13 9 -22t22 -9t22 9t9 22v0v489zM992 41h-156v157q0 13 -9 22t-22 9t-22 -9t-9 -22v-157h-157
q-12 0 -21 -9t-9 -21.5t9 -21.5t21 -9h157v-157q0 -12 9 -21t22 -9t22 9t9 21v157h156q13 0 22 9t9 21.5t-9 21.5t-22 9z" />
    <glyph glyph-name="uniE67C" unicode="&#xe67c;" horiz-adv-x="1025" 
d="M929 573h-147l-77 122h-384l-77 -122h-147q-30 0 -63 -25t-33 -65v-488q0 -36 28.5 -63.5t60.5 -27.5h841q33 0 63.5 28t30.5 62v488q0 28 -26.5 59.5t-69.5 31.5zM961 -6q0 -8 -11 -18.5t-19 -10.5h-841q-6 0 -15.5 9.5t-9.5 20.5v488q0 12 12.5 20.5t19.5 8.5h147h36
l19 30l58 92h314l57 -92l17 -30h37h147q10 0 18 -7.5t10.5 -13.5t3.5 -9v-488zM513 482q-93 0 -158.5 -62.5t-65.5 -150.5t65.5 -150.5t158.5 -62.5t158.5 62.5t65.5 150.5t-65.5 150.5t-158.5 62.5zM513 117q-66 0 -113 44.5t-47 107.5t47 107.5t113 44.5t113 -44.5
t47 -107.5t-47 -107.5t-113 -44.5z" />
    <glyph glyph-name="uniE67D" unicode="&#xe67d;" 
d="M526.5 -192q-88.5 0 -169.5 34q-78 33 -138.5 93.5t-93.5 138.5q-34 81 -34 170q0 134 75 245q67 98 174 149q8 4 16.5 1t11.5 -12q3 -7 0 -14.5t-10 -11.5q-104 -49 -165.5 -146t-60.5 -212q0 -107 54 -198.5t146 -144t199 -51.5q106 1 196 54t142.5 144t52.5 197
q0 115 -61 211t-164 145q-7 4 -10 11.5t0 15.5t11.5 11t16.5 -1q106 -51 173 -149q75 -110 75 -244q0 -89 -35 -170q-33 -78 -93 -138.5t-139 -93.5q-81 -34 -169.5 -34zM525 215q-8 0 -14 6t-6 15v553q0 9 6 15t14 6q9 0 15 -6t6 -15v-553q0 -9 -6 -15t-15 -6z" />
    <glyph glyph-name="uniE67E" unicode="&#xe67e;" 
d="M755 483l-243 244h-43v-325l-196 197l-60 -60l239 -239l-239 -239l60 -60l196 197v-325h43l243 244l-183 183zM555 562l81 -81l-81 -79v160zM636 117l-81 -79v160z" />
    <glyph glyph-name="uniE67F" unicode="&#xe67f;" 
d="M992 684h-499l-118 119q-10 9 -23 9h-320q-13 0 -22.5 -9.5t-9.5 -22.5v-704q0 -13 9.5 -22.5t22.5 -9.5h352q13 0 22.5 9.5t9.5 22.5t-9.5 22.5t-22.5 9.5h-320v640h275l118 -119q10 -9 23 -9h480v-512h-320q-13 0 -22.5 -9.5t-9.5 -22.5t9.5 -22.5t22.5 -9.5h352
q13 0 22.5 9.5t9.5 22.5v576q0 13 -9.5 22.5t-22.5 9.5zM640 172q13 0 22.5 9.5t9.5 22.5t-9 23l-128 128q-10 9 -23 9t-23 -9l-128 -128q-9 -10 -9 -23t9.5 -22.5t22.5 -9.5t23 9l73 74v-435q0 -13 9.5 -22.5t22.5 -9.5t22.5 9.5t9.5 22.5v435l73 -74q10 -9 23 -9z" />
    <glyph glyph-name="uniE680" unicode="&#xe680;" 
d="M285 527h454v-454h-454v454z" />
    <glyph glyph-name="uniE681" unicode="&#xe681;" 
d="M0 684h128v-640h-128v640zM192 684h64v-640h-64v640zM320 684h64v-640h-64v640zM512 684h64v-640h-64v640zM768 684h64v-640h-64v640zM960 684h64v-640h-64v640zM640 684h32v-640h-32v640zM448 684h32v-640h-32v640zM864 684h32v-640h-32v640zM0 -20h64v-64h-64v64z
M192 -20h64v-64h-64v64zM320 -20h64v-64h-64v64zM640 -20h64v-64h-64v64zM960 -20h64v-64h-64v64zM768 -20h128v-64h-128v64zM448 -20h128v-64h-128v64z" />
    <glyph glyph-name="uniE682" unicode="&#xe682;" 
d="M86 470v211v5q0 3 2.5 10.5t6.5 13.5t14 11t23 5h209v-84h-145q-22 -3 -24 -21v-151h-86zM684 726h209q2 1 5 0.5t10.5 -3t13.5 -6.5t11 -14t5 -23v-209h-84v146q-3 23 -21 25h-149v84zM86 129v-210v-5q0 -3 2.5 -10.5t6.5 -13.5t14 -11t23 -5h209v85h-145q-22 3 -24 21
v149h-86v0zM684 -126h209q2 -1 5 -0.5t10.5 3t13.5 6.5t11 14t5 23v209h-84v-146q-4 -22 -22 -24h-148v-85zM86 326h852v-52h-852v52zM256 555h41v-512h-41v512zM342 555h41v-512h-41v512zM522 555h41v-512h-41v512zM728 555h41v-512h-41v512zM411 555h72v-512h-72v512z
M587 555h117v-512h-117v512z" />
    <glyph glyph-name="uniE683" unicode="&#xe683;" 
d="M509 -212q-92 0 -175.5 36t-144 96.5t-96.5 144t-36 175.5q0 139 76 252t204 163q17 7 34.5 0.5t24.5 -22.5q7 -17 0.5 -34.5t-23.5 -24.5q-104 -40 -165 -131t-61 -203q0 -98 48.5 -181.5t132 -132t181 -48.5t181 48.5t132 132t48.5 181.5q0 112 -60 203t-161 131
q-18 7 -25 24.5t2 34.5q7 17 24.5 24.5t34.5 -2.5q125 -50 200 -163t75 -252q0 -92 -35.5 -175.5t-96.5 -144t-144.5 -96.5t-174.5 -36zM509 240q-21 0 -33.5 11t-12.5 30v490q0 19 12.5 30t33 11t33 -11t12.5 -30v-490q0 -19 -12.5 -30t-32.5 -11z" />
    <glyph glyph-name="uniE684" unicode="&#xe684;" horiz-adv-x="1280" 
d="M133 300q0 103 40 197t108 162t162 108t197 40t197 -40t162 -108t108 -162t40 -197t-40 -197t-108 -162t-162 -108t-197 -40t-197 40t-162 108t-108 162t-40 197zM235 300q0 -110 54 -203.5t147.5 -147.5t203.5 -54t203.5 54t147.5 147.5t54 203.5t-54 203.5
t-147.5 147.5t-203.5 54t-203.5 -54t-147.5 -147.5t-54 -203.5zM759 495l-119 -110l-119 110l-93 -82l119 -113l-130 -119l93 -93l130 124l130 -124l93 93l-130 119l119 113z" />
    <glyph glyph-name="uniE685" unicode="&#xe685;" 
d="M955 500q-1 88 -59.5 151t-146.5 73q-68 7 -132 -23t-103 -87q-32 52 -91 80.5t-126 30.5q-94 2 -158.5 -62.5t-70.5 -160.5q-4 -48 12 -99.5t49 -102.5t60.5 -86t67.5 -81q73 -82 154 -147q1 -1 13 -10t15 -11.5t13.5 -10t16.5 -10.5t15 -7t17 -6q5 -2 11 -2t12 2
q6 1 13 3.5t14 6.5t12 7t13 8.5t11.5 8t12 9t10.5 8.5q74 56 149 137q199 214 196 381z" />
    <glyph glyph-name="uniE686" unicode="&#xe686;" horiz-adv-x="1188" 
d="M440.5 518q-27.5 0 -47 -19t-19.5 -46.5t19.5 -47t46.5 -19.5h66v66q0 28 -19 47t-46.5 19zM440 214q-27 0 -46.5 -19.5t-19.5 -47t19.5 -46.5t47 -19t46.5 19t19 47v66h-66zM746 214h-66v-66q0 -28 19.5 -47t46.5 -19t46.5 19t19.5 46.5t-19.5 47t-46.5 19.5zM1067 496
q-39 94 -111 166t-166 111t-196 39t-196 -39t-166 -111t-111 -166t-39 -196t39 -196t111 -166t166 -111t196 -39t196 39t166 111t111 166t39 196t-39 196zM440.5 27q-49.5 0 -85 35.5t-35.5 85t35.5 85t84.5 35.5h121v-120q0 -50 -35.5 -85.5t-85 -35.5zM561 332h-121
q-49 0 -84.5 35.5t-35.5 85t35.5 85t85 35.5t85 -35.5t35.5 -85.5v-120zM746 27q-50 0 -85.5 35.5t-35.5 85.5v120h121q50 0 85 -35.5t35 -85t-35 -85t-85 -35.5zM746 332h-121v120q0 50 35.5 85.5t85.5 35.5t85 -35.5t35 -85t-35 -85t-85 -35.5zM746 518q-27 0 -46.5 -19
t-19.5 -47v-66h66q27 0 46.5 19.5t19.5 47t-19.5 46.5t-46.5 19z" />
    <glyph glyph-name="uniE687" unicode="&#xe687;" 
d="M215.5 522q-11.5 0 -19.5 8t-8 20v178q0 11 8 19t19.5 8t19.5 -8t8 -19v-178q0 -12 -8 -20t-19.5 -8zM215.5 -149q-11.5 0 -19.5 8t-8 19v425q0 11 8 19.5t19.5 8.5t19.5 -8.5t8 -19.5v-425q0 -11 -8 -19t-19.5 -8zM210 277q-58 0 -99.5 41.5t-41.5 99.5t41.5 99.5
t99.5 41.5t99.5 -41.5t41.5 -99.5t-41.5 -99.5t-99.5 -41.5zM210.5 504q-35.5 0 -61 -25.5t-25.5 -61t25.5 -60.5t61 -25t60.5 25t25 60.5t-25 61t-60.5 25.5zM236 450h-3l-4 1q-5 1 -8.5 5.5t-2.5 10.5t6 9t10 2l4 -1q6 -1 9 -5.5t2 -10.5q-2 -11 -13 -11zM163 390
q-6 0 -10 4t-4 10q0 43 38 65q12 6 18.5 -5.5t-5.5 -18.5q-23 -14 -23 -41q0 -6 -4 -10t-10 -4zM516.5 276q-11.5 0 -19.5 8t-8 19v425q0 11 8 19t19.5 8t19.5 -8t8 -19v-425q0 -11 -8 -19t-19.5 -8zM516.5 -149q-11.5 0 -19.5 8t-8 19v178q0 12 8 20t19.5 8t19.5 -8t8 -20
v-178q0 -11 -8 -19t-19.5 -8zM511.5 30q-58.5 0 -99.5 41.5t-41 99.5t41 99.5t99.5 41.5t99.5 -41.5t41 -99.5t-41 -99.5t-99.5 -41.5zM511.5 257q-35.5 0 -60.5 -25t-25 -60.5t25 -61t60.5 -25.5t61 25.5t25.5 61t-25.5 60.5t-61 25zM537 203h-3l-3 1q-6 1 -9 6t-2 10.5
t5.5 8.5t10.5 2l4 -1q5 -1 8.5 -5.5t2.5 -10.5q-3 -11 -14 -11zM464.5 144q-5.5 0 -9.5 4t-4 9q0 43 37 65q12 7 19 -5t-5 -19q-24 -13 -24 -41q0 -5 -4 -9t-9.5 -4zM832 618q-11 0 -19 8t-8 20v82q0 11 8 19t19 8t19 -8t8 -19v-82q0 -12 -8 -20t-19 -8zM832 -149
q-11 0 -19 8t-8 19v521q0 11 8 19t19 8t19 -8t8 -19v-521q0 -11 -8 -19t-19 -8zM827 373q-58 0 -99.5 41t-41.5 99.5t41.5 99.5t99.5 41t99.5 -41t41.5 -99.5t-41.5 -99.5t-99.5 -41zM826.5 600q-35.5 0 -60.5 -25.5t-25 -61t25 -60.5t60.5 -25t61 25t25.5 60.5t-25.5 61
t-61 25.5zM852 546h-2l-4 1q-6 1 -9 5.5t-2 10.5t6 9t10 2l4 -1q5 -1 8.5 -6t2.5 -10q-2 -11 -14 -11zM779.5 486q-5.5 0 -9.5 4t-4 10q0 43 38 65q11 6 18 -5.5t-5 -18.5q-23 -14 -23 -41q0 -6 -4.5 -10t-10 -4z" />
    <glyph glyph-name="uniE688" unicode="&#xe688;" 
d="M881 -103q-107 -43 -227 -43q-344 0 -411 297h-97v86h85q-3 19 -3 44q0 28 5 63h-87v86h105q40 142 155 221t277 79q112 0 198 -33v-103q-90 47 -204 47q-95 0 -172.5 -56t-109.5 -155h390v-86h-409q-5 -54 -1 -107h410v-86h-396q59 -209 274 -209q106 0 218 52v-97z" />
    <glyph glyph-name="uniE689" unicode="&#xe689;" 
d="M740 483q-11 -11 -26 -11t-26 11l-139 140v-507q0 -16 -11 -26.5t-26.5 -10.5t-26 10.5t-10.5 26.5v505l-140 -139q-11 -11 -26 -11t-26 11t-11 26t11 26l198 199q2 3 5 5q10 11 25.5 11t26.5 -11l202 -203q11 -10 11 -25.5t-11 -26.5zM959 -71v428v1v42v1v0
q-1 15 -11.5 25.5t-25.5 10.5h-3h-4h-143q-15 0 -26 -11t-11 -26t11 -26t26 -11h112v-413q0 -9 -5 -14t-10 -5l-4 -1h-709q-6 1 -10 3.5t-5.5 6.5t-2 7.5t-0.5 5.5v2v408h113q15 0 26 11t11 26t-11 26t-26 11h-143h-3h-4q-15 0 -25.5 -10t-11.5 -25v-472q0 -73 55 -77h19
h745q24 0 41 8t23 19t10 22.5t2 18.5t0 8z" />
    <glyph glyph-name="uniE68A" unicode="&#xe68a;" 
d="M896 640h-768q-11 0 -18.5 7.5t-7.5 18t7.5 18t18.5 7.5h768q11 0 18.5 -7.5t7.5 -18t-7.5 -18t-18.5 -7.5zM896 486h-410q-10 0 -17.5 7.5t-7.5 18.5t7.5 18.5t17.5 7.5h410q11 0 18.5 -7.5t7.5 -18.5t-7.5 -18.5t-18.5 -7.5zM896 333h-410q-10 0 -17.5 7.5t-7.5 18
t7.5 18t17.5 7.5h410q11 0 18.5 -7.5t7.5 -18t-7.5 -18t-18.5 -7.5zM896 179h-410q-10 0 -17.5 7.5t-7.5 18t7.5 18t17.5 7.5h410q11 0 18.5 -7.5t7.5 -18t-7.5 -18t-18.5 -7.5zM896 26h-768q-11 0 -18.5 7.5t-7.5 18t7.5 18t18.5 7.5h768q11 0 18.5 -7.5t7.5 -18t-7.5 -18
t-18.5 -7.5zM128 179q-6 0 -11 3q-15 7 -15 23v307q0 16 14.5 23t26.5 -3l205 -153q10 -8 10 -20.5t-10 -20.5l-205 -154q-6 -5 -15 -5zM154 461v-205l136 102z" />
    <glyph glyph-name="uniE68B" unicode="&#xe68b;" 
d="M510.5 -102q-106.5 0 -197 52.5t-142.5 142.5t-52 196.5t52 197t142.5 142.5t197 52t196.5 -52t142.5 -142.5t52.5 -197t-52.5 -196.5t-142.5 -142.5t-196.5 -52.5zM510 608q-132 0 -225 -93t-93 -225q0 -122 83 -213q22 11 40.5 13.5t48.5 14.5q27 11 46.5 19.5
t24.5 11.5l5 3l1 59q-3 2 -7 6.5t-12 23t-11 42.5q-10 -2 -15 7.5t-5 23.5q-1 1 -1.5 9.5t-1 14.5t0 13t3.5 10t8 2q-7 48 -5 64q3 36 35 64.5t81 31.5q55 -2 83 -29.5t32 -66.5q1 -15 -5 -64q5 1 7.5 -2t3 -10t0.5 -13t-1 -14.5t-1 -9.5q-1 -14 -6 -23.5t-14 -7.5
q-3 -24 -11 -42t-14 -24l-6 -6l1 -58q15 -8 76 -34q31 -12 49 -15t41 -14q82 91 82 213q0 132 -93 225t-225 93z" />
    <glyph glyph-name="uniE68C" unicode="&#xe68c;" 
d="M958 186q-1 18 -14 30t-30.5 12t-30 -12t-13.5 -30h-1v-195q0 -17 -10.5 -30t-25.5 -13h-642q-15 0 -25.5 13t-10.5 30v195h-1q-1 18 -13.5 30t-30 12t-30.5 -12t-14 -30v-195q0 -54 36.5 -93t88.5 -39h642q52 0 88.5 39t36.5 93v195zM498 7q5 -7 14 -7t14 7l250 293
q8 9 3 19.5t-17 10.5h-142v377q0 15 -10.5 26t-26.5 11h-142q-16 0 -26.5 -11t-10.5 -26v-377h-142q-12 0 -17 -10.5t3 -19.5z" />
    <glyph glyph-name="uniE68D" unicode="&#xe68d;" 
d="M798 653q4 4 3 10q-2 7 -7 9q-39 19 -82.5 11t-74.5 -39q-29 -29 -38.5 -71.5t4.5 -81.5l-267 -267q-23 8 -46 8q-62 0 -106 -44q-31 -31 -39 -73.5t10 -82.5q2 -5 8 -6t10 3l81 81q10 9 18 1l35 -36q9 -9 -1 -18l-80 -81q-4 -4 -3 -10t7 -9q28 -14 60 -14q56 0 97 42
q30 29 39.5 71.5t-4.5 81.5l267 266q22 -8 46 -8q62 0 105 44q31 31 39 73.5t-9 82.5q-2 5 -9 6q-6 2 -10 -2l-81 -81q-9 -10 -18 0l-35 34q-9 9 0 18zM701 537l35 -34q10 -11 25.5 -11t25.5 11l68 68q8 -31 0 -61t-30 -54q-37 -36 -89 -36q-25 0 -45 9q-6 3 -13 -2
l-278 -278q-6 -6 -2 -12q14 -33 6.5 -71.5t-33.5 -63.5q-22 -23 -53.5 -31t-60.5 2l67 69q11 10 11.5 25t-10.5 25l-34 36q-11 11 -26 10.5t-26 -11.5l-68 -68q-8 30 0 60.5t31 53.5q36 36 89 36q24 0 44 -8q7 -4 13 2l276 277q6 6 3 12q-14 33 -6.5 71.5t32.5 64.5
q23 23 54 30.5t61 -1.5l-67 -68q-11 -11 -11 -26t11 -26zM290 -59q-32 0 -61 14q-6 3 -7 10q-1 8 3 12l81 81q3 3 3 7q0 6 -3 8l-34 37q-7 6 -15 -2l-81 -81q-5 -5 -12 -3q-7 1 -10 8q-17 40 -9 83t39 75q44 44 107 44q25 0 46 -8l265 266q-14 39 -4 81.5t39 72.5
q32 31 76 39t83 -11q6 -2 7.5 -10t-3.5 -12l-81 -81q-4 -4 -4 -8.5t4 -7.5l35 -35q3 -3 8 -3t8 3l81 81q5 5 11 4q7 -1 10 -8q18 -41 9.5 -84t-39.5 -75q-44 -44 -107 -44q-23 0 -46 8l-265 -265q14 -40 4 -82t-39 -72q-42 -42 -99 -42zM264 115q6 0 9 -3l35 -36q4 -5 4 -11
q0 -5 -5 -10l-80 -81q-3 -3 -2 -8q1 -6 6 -7q27 -14 59 -14q55 0 96 40q29 30 38 71.5t-4 79.5l-1 1l1 1l267 267l1 -1q23 -8 45 -8q62 0 105 43q30 30 38 72t-10 82q-2 5 -7 6t-8 -2l-81 -81q-5 -5 -11.5 -5t-10.5 5l-35 34q-4 5 -4 10.5t4 10.5l81 81q3 4 2 9q-1 6 -5 7
q-39 19 -81.5 11.5t-72.5 -38.5q-29 -29 -38.5 -70.5t4.5 -80.5v-1l-268 -268v1q-24 8 -46 8q-61 0 -104 -43q-30 -30 -38 -72t9 -82q3 -5 7 -6q6 -1 9 2l81 81q5 5 11 5zM290 -34q-19 0 -34 5l-3 1l70 70q10 11 10.5 24.5t-9.5 23.5l-35 36q-9 10 -23 10h-1q-14 0 -25 -11
l-70 -70l-1 3q-8 30 0 61t31 54q37 37 91 37q24 0 45 -9q6 -3 11 3l276 276q5 5 2 10q-14 34 -6.5 73t33.5 65q23 24 55 32t62 -2l3 -1l-70 -70q-10 -10 -10 -24.5t10 -24.5l35 -35q10 -9 24.5 -9t24.5 9l70 71v-3q8 -31 0 -62t-31 -54q-37 -37 -90 -37q-25 0 -46 9
q-5 3 -10 -2l-278 -278q-5 -5 -2 -10q14 -34 6.5 -72.5t-33.5 -64.5q-34 -34 -82 -34zM260 -26q29 -9 58.5 -1t52.5 30q25 26 32.5 63.5t-6.5 69.5q-5 7 3 15l277 277q8 6 15 2q20 -8 44 -8q52 0 88 35q21 22 29 51t1 58l-66 -65q-10 -11 -26.5 -11t-27.5 11l-34 34
q-12 12 -12 27t12 27l65 65q-29 9 -59 1t-52 -30q-25 -26 -32.5 -64t6.5 -70q5 -7 -3 -14l-276 -277q-7 -6 -15 -2q-20 8 -44 8q-52 0 -88 -35q-21 -22 -29 -51t-1 -58l66 66q11 11 27 11t26 -10l35 -36q11 -11 11 -26.5t-12 -26.5zM290 -60q-34 0 -62 14q-6 4 -8 12
q-2 9 3 14l81 80q3 4 3 7q0 4 -3 6l-34 37q-2 1 -6.5 0t-6.5 -3l-81 -81q-6 -6 -13 -4q-9 1 -12 9q-18 41 -9.5 84.5t39.5 75.5q44 44 109 44q24 0 45 -8l264 265q-13 39 -3 82t39 73q42 41 101 41q32 0 60 -13q6 -2 8 -12q2 -9 -3 -14l-81 -81q-7 -6 0 -13l34 -34
q7 -7 14 0l81 81q6 6 14 3q8 -1 11 -8q18 -42 10 -85.5t-40 -74.5q-44 -44 -108 -44q-21 0 -46 7l-264 -264q13 -39 3 -82t-39 -72q-43 -42 -100 -42zM265 118q7 0 10 -4l35 -36q5 -5 5 -12t-6 -11l-80 -81q-2 -2 -2 -8q1 -3 5 -6q27 -13 58 -13q55 0 94 40q29 29 38 70.5
t-4 79.5v2l270 270h2q23 -8 45 -8q61 0 103 42q30 31 37.5 72t-9.5 81q-1 3 -5 4h-2q-3 0 -6 -2l-80 -82q-5 -5 -12 -5t-12 5l-34 34q-12 12 0 24l81 81q2 2 2 7q-2 5 -5 5q-27 13 -57 13q-55 0 -95 -39q-29 -30 -38 -71t4 -79l1 -2l-271 -270l-2 1q-24 8 -45 8
q-61 0 -103 -43q-30 -30 -38 -71.5t9 -80.5q1 -3 6 -4h1q4 0 6 2l81 81q5 6 13 6zM290 -36q-16 0 -35 5l-6 3l73 73q10 10 10 23q0 14 -10 22l-34 36q-9 9 -22 9q-15 0 -24 -10l-72 -73l-2 6q-8 31 0.5 62.5t30.5 55.5q38 38 92 38q25 0 46 -9q5 -2 10 1l276 277q4 4 1 8
q-14 34 -6.5 73.5t34.5 66.5q35 36 84 36q16 0 34 -6l6 -2l-71 -72q-11 -11 -11 -24t11 -23l34 -34q10 -10 23.5 -10t23.5 10l72 72l1 -6q8 -31 0 -62t-31 -56q-37 -37 -92 -37q-24 0 -46 8q-5 2 -9 -1l-278 -278q-4 -4 -1 -8q14 -34 6.5 -73t-34.5 -66q-35 -35 -84 -35z
M264 -26q14 -3 27 -3q45 0 78 33q25 25 32.5 62t-6.5 70q-4 8 3 15l278 278q8 7 17 3q18 -8 43 -8q52 0 86 35q44 46 31 105l-63 -63q-12 -12 -28.5 -12t-28.5 12l-34 34q-12 12 -12 28.5t12 28.5l63 63q-15 4 -27 4q-46 0 -79 -33q-25 -26 -32 -63.5t6 -69.5q5 -8 -3 -16
l-276 -277q-9 -7 -17 -3q-18 8 -43 8q-52 0 -86 -35q-44 -46 -32 -105l64 63q11 13 30 13q16 0 27 -11l35 -36q11 -12 11 -28t-12 -28zM290 -62q-33 0 -62 14q-8 4 -10 13q-1 10 5 15l80 81q3 3 3 5q0 3 -2 5l-35 36q-1 1 -4.5 0t-5.5 -2l-81 -81q-6 -7 -15 -5q-9 1 -13 10
q-18 41 -9.5 85.5t40.5 76.5q45 44 110 44q24 0 45 -7l262 263q-13 40 -2.5 83t39.5 73q43 42 102 42q34 0 61 -14q7 -2 9 -13q1 -9 -4 -15l-81 -81q-2 -2 -2 -5t2 -5l35 -35q2 -2 5.5 -2t4.5 2l81 81q7 7 16 5q8 -1 13 -10q18 -41 9.5 -85.5t-40.5 -76.5q-45 -44 -110 -44
q-21 0 -45 7l-262 -262q12 -41 2 -83.5t-39 -72.5q-44 -42 -102 -42zM266 112q4 0 4 -1l35 -36q4 -4 4 -8t-5 -8l-80 -81q-4 -4 -3 -12q2 -7 8 -10q29 -15 61 -15q56 0 99 41q29 30 38.5 72t-3.5 81v1h1l264 265h1q24 -7 45 -7q64 0 107 43q31 31 39 74t-9 83q-4 7 -11 8
q-5 2 -12 -2l-81 -81q-8 -9 -16 0l-35 34q-3 3 -3 8q0 4 3 8l81 81q4 4 3 12q-2 9 -8 11q-26 13 -59 13q-58 0 -99 -41q-29 -29 -38.5 -71t3.5 -81v-1l-1 -1l-264 -265h-1q-21 7 -45 7q-64 0 -107 -43q-31 -32 -39 -74.5t9 -83.5q4 -7 11 -8q5 -2 12 3l81 81q3 4 10 4z
M290 -55q-32 0 -59 13q-5 4 -6 8q0 6 3 8l81 81q5 4 5 10t-5 11l-34 36q-3 3 -9 3q-8 0 -12 -5l-81 -81q-2 -3 -7 -3h-1q-7 1 -7 6q-17 39 -9 81t38 72q42 44 104 44q20 0 46 -8l1 -1l270 268l-1 2q-14 38 -4.5 80t39.5 71q40 41 97 41q30 0 57 -13q4 -1 5 -7q0 -5 -2 -8
l-81 -82q-5 -4 -5 -10t5 -10l34 -35q4 -4 10 -4q8 0 12 4l80 83q3 2 7 2h2q5 -1 7 -5q17 -40 9 -82t-38 -72q-42 -44 -104 -44q-22 0 -45 8h-1l-269 -269l1 -1q13 -38 3.5 -80.5t-38.5 -71.5q-45 -40 -98 -40zM265 120q7 0 12 -5l34 -36q6 -6 6 -13t-6 -13l-80 -81
q-2 -1 -2 -6q1 -2 4 -5q26 -13 57 -13q54 0 93 40q28 29 37 69.5t-4 78.5v2l271 272l3 -1q23 -7 44 -7q61 0 101 41q30 30 37.5 71t-8.5 80q-2 3 -5 3h-1q-3 0 -5 -1l-80 -82q-6 -7 -13 -6q-8 0 -13 6l-34 35q-6 5 -6 13q0 7 6 13l80 82q2 1 2 5q-2 4 -3 4q-26 13 -56 13
q-55 0 -94 -39q-29 -29 -38 -69.5t4 -77.5l2 -4l-273 -271l-2 1q-25 8 -44 8q-61 0 -102 -42q-29 -30 -37 -71t9 -80q1 -2 4 -3h1q3 0 5 1l80 81q4 7 14 7zM290 -39q-15 0 -36 6l-8 3l74 75q10 10 10 22q0 13 -9 21l-35 36q-8 8 -20 8q-14 0 -22 -9l-75 -75l-2 9
q-8 31 0.5 63t31.5 56q38 38 93 38q24 0 47 -8q4 -2 8 1l276 277q3 3 1 6q-14 34 -6.5 74.5t34.5 67.5q36 36 85 36q15 0 36 -6l8 -2l-74 -75q-9 -9 -9 -21.5t9 -21.5l35 -35q9 -9 22 -9t22 9l74 74l2 -8q8 -32 0 -63.5t-32 -55.5q-38 -39 -93 -39q-24 0 -47 9q-3 2 -8 -2
l-277 -277q-3 -3 -2 -6q15 -35 7.5 -74.5t-34.5 -66.5q-38 -37 -86 -37zM252 -28l3 -1q20 -6 34 -6q48 0 83 35q26 26 33.5 64.5t-6.5 72.5q-3 5 2 10l278 278q5 4 11 2q22 -9 46 -9q53 0 90 37q22 24 30 55t0 61v3l-70 -70q-11 -10 -25 -10t-25 10l-34 35q-11 11 -11 24.5
t11 24.5l69 70l-3 2q-19 5 -34 5q-47 0 -82 -34q-26 -27 -33.5 -66t6.5 -72q3 -6 -2 -11l-276 -276q-5 -5 -12 -2q-21 8 -45 8q-54 0 -91 -37q-22 -24 -30 -54.5t0 -61.5l1 -3l70 70q10 11 25 11q14 0 23 -9l35 -36q10 -9 10 -24q0 -14 -11 -25zM291 -31q-11 0 -28 3l-3 1
l67 66q11 11 11 26.5t-11 26.5l-34 36q-10 10 -26 10q-18 0 -29 -12l-65 -66l-1 4q-12 60 32 106q35 36 87 36q25 0 44 -8q8 -3 15 3l277 278q6 6 2 14q-14 32 -6.5 70t32.5 64q34 34 81 34q10 0 27 -4h3l-65 -66q-12 -12 -12 -27t12 -27l35 -34q11 -11 26.5 -11t26.5 11
l66 65l1 -3q12 -60 -32 -106q-35 -37 -88 -37q-24 0 -44 8q-7 4 -15 -2l-277 -278q-7 -6 -3 -14q13 -33 6 -70.5t-32 -62.5q-35 -34 -80 -34zM267 -25q12 -3 24 -3q43 0 77 33q24 24 31.5 60.5t-6.5 68.5q-5 9 4 18l277 278q10 6 20 3q18 -8 42 -8q51 0 85 35q41 44 31 100
l-61 -62q-13 -12 -30 -12t-30 12l-34 35q-13 12 -13 29.5t13 29.5l60 62q-11 3 -23 3q-45 0 -77 -33q-25 -25 -32 -61.5t7 -68.5q5 -9 -4 -18l-276 -278q-11 -7 -20 -3q-18 8 -42 8q-51 0 -85 -35q-41 -44 -31 -100l62 62q11 13 31 13q17 0 29 -12l34 -36q13 -12 13 -28.5
t-13 -29.5zM818 -24q-9 -10 -19 0l-232 231q-7 8 -16 0q-8 -8 0 -16l232 -232q10 -11 26 -11q15 0 26 11l33 35q11 11 11 25.5t-11 25.5l-231 232q-8 7 -17 0q-8 -8 0 -17l231 -231q9 -9 0 -19zM809 -53q-16 0 -28 12l-232 231q-9 10 0 19q11 9 20 0l232 -231q8 -8 16 0
l33 34q7 9 0 16l-231 231q-10 11 0 20t19 0l231 -232q12 -11 12 -26.5t-12 -27.5l-33 -34q-11 -12 -27 -12zM559.5 209q-4.5 0 -7.5 -3q-7 -7 0 -14l232 -231q10 -10 24.5 -10t24.5 10l33 34q11 11 11 25t-11 25l-231 231q-6 6 -14 0q-7 -7 0 -14l231 -231q10 -10 0 -21
l-33 -34q-5 -4 -11.5 -4t-10.5 4l-232 231q-1 2 -5.5 2zM809 -55q-17 0 -29 11l-232 232q-10 11 0 21q11 11 21 0l232 -231q7 -7 14 0l33 34q7 8 0 14l-231 231q-10 11 0 22q12 10 22 0l231 -232q12 -11 12 -28q0 -15 -12 -28l-33 -35q-11 -11 -28 -11zM559 206q-3 0 -6 -2
q-6 -5 1 -11l232 -232q10 -10 23 -10q14 0 23 10l33 35q10 10 10 23t-10 23l-231 232q-5 5 -12 0q-5 -6 1 -12l231 -231q11 -11 0 -24l-33 -34q-5 -5 -12.5 -5t-11.5 5l-232 231q-2 2 -6 2zM809 -57q-17 0 -31 13l-232 231q-11 13 0 24q13 12 25 0l232 -231q5 -5 11 0l33 34
q5 6 0 11l-231 231q-12 13 0 25q13 11 24 0l232 -231q12 -13 12 -30q0 -16 -12 -30l-34 -34q-10 -13 -29 -13zM559 212q-6 0 -11 -3q-8 -9 0 -19l232 -231q12 -11 28 -11q17 0 27 11l33 34q11 12 11 27q0 16 -11 27l-231 231q-9 9 -20 0q-9 -9 0 -19l231 -231q8 -7 0 -16
l-33 -34q-8 -8 -16 0l-232 231q-2 3 -8 3zM809 -50q-14 0 -25 11l-232 231q-7 7 -1 14q4 3 8 3q5 0 8 -3l232 -231q3 -4 10 -4t11 4l33 34q10 11 0 21l-231 231q-7 7 -1 15q8 6 15 0l231 -231q11 -11 11 -25t-11 -25l-33 -34q-10 -11 -25 -11zM559 205q-2 0 -5 -2
q-4 -4 0 -9l232 -231q10 -10 22 -10q13 0 22 10l33 35q9 9 9 21.5t-9 21.5l-231 231q-4 4 -10 0q-4 -4 1 -8l231 -232q6 -5 6 -12.5t-6 -13.5l-33 -34q-6 -6 -14 -5q-7 0 -12 6l-232 231q-2 1 -4 1zM278 612l-69 69q-8 8 -17 0l-46 -46q-8 -8 0 -17l69 -69q4 -4 8.5 -4
t7.5 4l15 15l177 -177q4 -4 8.5 -4t7.5 4q8 8 0 17l-176 176l15 15q8 8 0 17zM223 574l-52 52l29 30l53 -53zM431 382q-5 0 -9 4l-176 176l-13 -14q-9 -9 -19 0l-69 70q-10 10 0 19l46 46q10 9 19 0l70 -69q9 -11 0 -19l-14 -14l175 -174q9 -11 0 -20q-4 -5 -10 -5zM246 567
l179 -178q6 -7 12.5 -0.5t0.5 14.5l-178 178l17 16q6 7 0 15l-70 69q-6 7 -14 0l-46 -46q-7 -7 0 -15l69 -69q7 -6 13 0zM223 571l-55 55l32 33l56 -56zM173 626l50 -50l27 27l-50 50zM431 380q-5 0 -10 4l-175 175l-12 -12q-10 -11 -21 0l-69 69q-10 12 0 22l46 46
q12 10 22 0l69 -69q10 -12 0 -22l-12 -12l174 -174q10 -12 0 -22q-5 -5 -12 -5zM246 569l180 -180q6 -5 11 0t0 12l-179 179l18 18q5 5 0 12l-69 69q-5 5 -12 0l-46 -46q-5 -5 0 -12l69 -69q5 -5 11 0zM223 568l-58 58l35 35l58 -58zM176 626l47 -47l25 24l-48 48zM431 378
q-6 0 -12 5l-173 174l-10 -11q-5 -5 -12 -5t-12 5l-70 69q-11 13 0 25l47 46q13 12 24 0l70 -69q11 -13 0 -25l-11 -11l172 -172q12 -13 0 -25q-4 -6 -13 -6zM246 562l176 -176q5 -4 9 -4q6 0 11 4q9 9 0 20l-176 175l14 14q9 9 0 20l-70 69q-9 9 -19 0l-46 -46
q-10 -9 0 -20l69 -69q4 -4 9.5 -4t8.5 4zM432 386q-4 0 -6 3l-179 178l-16 -16q-7 -6 -13 0l-70 69q-6 8 0 15l46 46q8 7 15 0l69 -69q7 -8 0 -15l-16 -16l177 -178q7 -8 0 -14q-3 -3 -7 -3zM246 572l182 -181q4 -4 8 0t0 9l-181 181l20 19q4 4 0 10l-70 69q-4 4 -9 0
l-46 -46q-4 -4 0 -10l69 -69q4 -4 9 0zM223 566l-60 60l37 38l61 -61zM168 626l55 -55l32 32l-55 55zM223 576l-50 50l27 28l51 -51zM178 626l45 -45l22 22l-45 45z" />
    <glyph glyph-name="uniE68E" unicode="&#xe68e;" 
d="M511 -148q-91 0 -174 35.5t-143 95.5t-95.5 143t-35.5 174t35.5 174t95.5 143t143 95.5t174 35.5t174 -35.5t143 -95.5t95.5 -143t35.5 -174t-35.5 -174t-95.5 -143t-143 -95.5t-174 -35.5zM511 706q-110 0 -204 -54t-148 -148t-54 -204t54 -204t148 -148t204 -54t204 54
t148 148t54 204t-54 204t-148 148t-204 54zM383 526h40v-452h-40v452zM599 526h40v-452h-40v452z" />
    <glyph glyph-name="uniE68F" unicode="&#xe68f;" 
d="M817 223q0 28 -19 49l-386 385q-19 19 -54 35q-34 14 -63 14h-225q-28 0 -48.5 -20.5t-20.5 -48.5v-224q0 -30 14 -63q16 -36 35 -54l386 -386q19 -20 48 -20q28 0 50 20l264 264q19 21 19 49zM222 484q-20 -20 -48.5 -20t-48.5 20t-20 48.5t20 48.5t48.5 20t48.5 -20
t20 -48q1 -28 -20 -49zM1004 272l-385 385q-20 19 -55 35q-34 14 -63 14h-121q30 0 63 -14q36 -16 55 -35l385 -385q20 -21 20 -49q0 -29 -20 -49l-252 -253q15 -15 28 -24q11 -7 32 -7q28 0 49 19l264 265q20 20 20 49q0 28 -20 49zM1004 272z" />
    <glyph glyph-name="uniE690" unicode="&#xe690;" 
d="M147 659l531 -531h-230q-26 0 -45 -18.5t-19 -45.5t19 -45.5t45 -18.5h384q19 0 35.5 11t23.5 29q5 11 5 24v384q0 27 -18.5 45.5t-45 18.5t-45.5 -18.5t-19 -45.5v-230l-531 531q-18 19 -45 19t-45.5 -18.5t-18.5 -45.5t19 -45z" />
    <glyph glyph-name="uniE691" unicode="&#xe691;" 
d="M427 736q78 0 149 -30.5t122.5 -82t82 -122.5t30.5 -149q0 -67 -22 -128.5t-62 -111.5l242 -242q12 -12 12 -30t-12 -30.5t-30 -12.5t-31 13l-242 242q-50 -40 -111 -62t-128 -22q-78 0 -149.5 30.5t-122.5 82t-81.5 122.5t-30.5 149t30.5 149t81.5 122.5t122.5 82
t149.5 30.5zM426.5 651q-60.5 0 -116 -24t-95.5 -64t-63.5 -95t-23.5 -116t23.5 -116t63.5 -95t95.5 -64t116 -24t116 24t95.5 64t63.5 95t23.5 116t-23.5 116t-63.5 95t-95.5 64t-116 24zM299 395h256q17 0 29.5 -12.5t12.5 -30.5t-12.5 -30.5t-29.5 -12.5h-256
q-18 0 -30.5 12.5t-12.5 30.5t12.5 30.5t30.5 12.5z" />
    <glyph glyph-name="uniE692" unicode="&#xe692;" 
d="M387 530q-64 -11 -108 -50.5t-58.5 -87.5t3.5 -99t68 -84q6 -3 5.5 -8t-9.5 -30l-10 -30l71 38l19 -4q34 -9 62 -9h10l-4 14q-13 49 9.5 96t72 76.5t110.5 29.5h17l-4 12q-20 71 -95 111t-159 25zM371 441q14 -9 15 -25.5t-13 -25.5q-22 -14 -40 3.5t-3 39.5q6 9 19 12
t22 -4zM521 441q14 -11 14.5 -26t-12 -25t-29.5 -4q-18 7 -20 27t16 29q17 9 31 -1zM589 366q-66 -12 -106.5 -56.5t-37.5 -101.5q2 -49 38 -88t88 -52t112 0l13 4l29 -16q28 -15 29 -13.5t-7 24.5q-7 21 -6.5 24.5t9.5 9.5q33 24 48 56.5t11.5 64t-22 61.5t-47 51
t-68.5 30.5t-83 1.5zM585 284q6 -4 8.5 -12t0.5 -15q-6 -15 -22.5 -16t-22.5 14q-7 16 7 27.5t29 1.5zM707 282q9 -9 8 -21t-12 -17q-16 -9 -28.5 3.5t-4.5 28.5q6 10 17.5 12t19.5 -6zM891 64q47 80 58 173t-16 181q-26 84 -84 152.5t-136 109.5q-83 42 -177.5 47
t-180.5 -28q-83 -32 -147.5 -94t-99.5 -142q-37 -89 -36 -183q2 -93 43 -181q37 -79 103.5 -138.5t150.5 -88.5q88 -31 182 -22.5t175 54.5q25 13 48 31q9 6 11 14q2 9 -2 17q-5 8 -14.5 11t-17.5 -3q-35 -26 -74 -44l-10 -5l-2 -1l1 1q-1 -1 -5 -2q-10 -4 -21 -8
q-20 -7 -42 -12q-10 -2 -21 -4q-4 -1 -11 -2h-1q-3 0 -7 -1q-22 -2 -46 -2q-22 0 -46 2q-2 1 -6 1h-1q-4 1 -11 2q-10 2 -22 4q-20 5 -42 12q-9 3 -20 7q-1 1 -4 2q-1 0 -1 1q-5 2 -11 5q-38 17 -72 42q-2 1 -4 4h-1q-3 3 -8 6q-8 7 -16 15q-15 13 -30 29q-6 7 -13 15
q-1 2 -3 4l-1 2l1 -1q-3 4 -7 9q-12 17 -23 35q-10 18 -20 39q-1 2 -2 5v1q-2 4 -4 9q-4 10 -8 21q-6 20 -11 43q-2 10 -4 21q0 2 -1 6v1q-1 5 -1 13q-5 44 1 91v3h1q-1 0 -1 -2q0 1 1 5t2 10q2 11 4 23q5 21 13 43q3 9 8 20l-1 -2q1 2 1 3q1 1 2 4q2 5 5 11q9 18 21 37
q10 18 24 35l-1 -1l1 2l4 4q2 3 6 8q6 7 14 16q14 14 30 28q7 6 16 13l1 1q1 1 4 3q4 3 9 6q34 25 75 42l-2 -1l2 1q2 1 5 2q4 2 10 4q10 3 21 7q21 6 44 11q4 1 11 2h5l2 1h-1q11 1 24 2q21 2 45 1q10 0 22 -1q4 -1 10 -1q2 0 6 -1q4 0 -1 0h4q21 -3 44 -9q21 -6 42 -14
q4 -1 10 -3l2 -1h-1q1 0 4 -2q10 -4 20 -9q19 -9 38 -21q8 -6 17 -12q3 -2 8 -6q1 -1 4 -3l2 -1q32 -26 59 -59q3 -3 6 -7q1 -1 3 -4v1l1 -2q6 -8 13 -18q11 -17 21 -36q5 -8 9 -18q2 -4 5 -9q0 -1 2 -5q1 -3 -1 1q1 -1 2 -3q8 -19 14 -41q5 -19 9 -40q1 -4 2 -11q0 -1 1 -5
v-1q1 -9 2 -21q3 -42 -2 -85q0 -4 0 1q0 -2 -1 -6q0 -4 -1 -10q-2 -10 -5 -22q-4 -19 -11 -40q-3 -9 -8 -19q0 -2 -2 -5l1 2q-1 -2 -1 -3q-2 -3 -4 -9q-8 -18 -19 -37q-5 -8 -2.5 -17t10.5 -14t17 -2.5t14 10.5v0z" />
    <glyph glyph-name="uniE693" unicode="&#xe693;" 
d="M998 731q11 11 18.5 7.5t7.5 -17.5v-842q0 -14 -7.5 -17.5t-18.5 7.5l-405 405q-6 5 -8 11v-406q0 -14 -7.5 -17.5t-18.5 7.5l-405 405q-5 5 -8 11v-387q0 -15 -10.5 -26t-25.5 -11h-73q-15 0 -26 11t-11 26v804q0 15 11 26t26 11h73q15 0 25.5 -11t10.5 -26v-387
q3 6 8 11l405 405q11 11 18.5 7.5t7.5 -17.5v-406q2 6 8 11z" />
    <glyph glyph-name="uniE694" unicode="&#xe694;" 
d="M633 412h-145v145q0 20 -14.5 34.5t-34.5 14.5t-34 -14.5t-14 -34.5v-145h-146q-20 0 -34 -14.5t-14 -34.5t14 -34t34 -14h146v-146q0 -20 14 -34t34 -14t34.5 14t14.5 34v146h145q20 0 34 14t14 34t-14 34.5t-34 14.5zM1006 -132l-225 225q67 85 86.5 190t-12 208
t-108.5 181q-63 62 -144.5 95t-164 33t-164 -33t-144.5 -95.5t-95.5 -144t-32.5 -164.5t32.5 -164.5t95.5 -143.5q78 -78 181 -109.5t208.5 -11.5t189.5 87l225 -225q15 -15 36 -15t36 15t15 36t-15 36zM678 124q-65 -65 -152.5 -88t-175 0t-152.5 88t-88 152.5t0 175
t88 152.5t152.5 88.5t175 0t152.5 -88.5t88 -152.5t0 -175t-88 -152.5z" />
    <glyph glyph-name="uniE695" unicode="&#xe695;" 
d="M870 574h-399l-132 105h-184q-29 0 -49.5 -21.5t-20.5 -51.5v-311h-2v-69h2v-262q0 -36 25.5 -61.5t61.5 -25.5h697q36 0 62 25.5t26 61.5v523q0 36 -26 61.5t-62 25.5h1zM922 -36q0 -22 -15.5 -37t-37.5 -15h-697q-22 0 -37 15t-15 37v262h802v-262zM119 260v346
q0 16 10.5 27t25.5 11h172l132 -105h411q21 0 36.5 -15t15.5 -37v-227h-802h-1z" />
    <glyph glyph-name="uniE696" unicode="&#xe696;" 
d="M540 712q-9 5 -20 5q-18 0 -32 -12l-231 -203h-144q-21 0 -35 -14t-14 -34v-310q0 -20 14 -34.5t35 -14.5h144l231 -200q14 -12 32 -12q11 0 20 5q29 13 29 44v736q0 31 -29 44zM520 -68l-244 212h-163v310h163l244 214v-736zM667 421v-49q34 0 57.5 -24t23.5 -57.5
t-23.5 -57.5t-57.5 -24v-49q54 0 92 38.5t38 92.5t-38 92t-92 38zM797 553v-56q53 -33 83.5 -87.5t30.5 -119t-30.5 -119t-83.5 -87.5v-56q74 37 118.5 107.5t44.5 155.5t-44.5 155t-118.5 107z" />
    <glyph glyph-name="uniE697" unicode="&#xe697;" 
d="M593 84q-11 0 -19 8t-8 19v299q0 11 8 19t19.5 8t19.5 -8t8 -19v-299q0 -11 -8 -19t-20 -8zM431 84q-12 0 -20 8t-8 19v299q0 11 8 19t19.5 8t19.5 -8t8 -19v-299q0 -11 -8 -19t-19 -8zM853 536h-131v52q0 33 -23 56t-55 23h-263q-32 0 -55.5 -23t-23.5 -56v-52h-131
q-10 0 -18 -8t-8 -18.5t8 -18.5t18 -8h682q10 0 18 8t8 18.5t-8 18.5t-18 8zM357 588q0 11 7.5 18.5t18.5 7.5h259q10 0 17.5 -7.5t7.5 -18.5v-52h-310v52zM695 -67h-366q-33 0 -56 23t-23 56v393q0 11 8.5 18.5t19.5 7.5t19 -7.5t8 -18.5v-391q0 -10 7.5 -18t18.5 -8h362
q11 0 18.5 8t7.5 18v391q0 11 8 18t19.5 7t19.5 -7t8 -18v-393q0 -33 -23 -56t-56 -23zM695 -67z" />
    <glyph glyph-name="uniE698" unicode="&#xe698;" 
d="M515.5 259q32.5 0 55.5 22t23 54v485q0 32 -23 54t-55.5 22t-55.5 -22t-23 -54v-485q0 -32 23 -54t55.5 -22zM836 682q-24 21 -56.5 19t-54.5 -25.5t-20 -54.5t26 -52q52 -44 80.5 -104.5t28.5 -128.5q0 -85 -43.5 -157t-118.5 -114t-164 -42q-88 0 -163 42t-119 114
t-44 157q0 69 29 129.5t81 104.5q25 21 27 52t-20 54.5t-54.5 25.5t-56.5 -19q-77 -65 -120 -155.5t-43 -191.5q0 -95 38 -180.5t103 -148t154.5 -99t188 -36.5t188 36.5t154 99t103 148t38.5 180.5q0 101 -43 191t-119 155z" />
    <glyph glyph-name="uniE699" unicode="&#xe699;" 
d="M896 684h-768q-26 0 -45 -19t-19 -45v-640q0 -26 19 -45t45 -19h768q26 0 45 19t19 45v640q0 26 -19 45t-45 19zM896 588v-563l-253 247l-125 -89l-170 203l-220 -346v548q0 13 9.5 22.5t22.5 9.5h704q13 0 22.5 -9.5t9.5 -22.5zM850 -20h-684l189 298l151 -181l131 92z
M672 364q40 0 68 28t28 68t-28 68t-68 28t-68 -28t-28 -68t28 -68t68 -28zM672 492q13 0 22.5 -9.5t9.5 -22.5t-9.5 -22.5t-22.5 -9.5t-22.5 9.5t-9.5 22.5t9.5 22.5t22.5 9.5z" />
    <glyph glyph-name="uniE69A" unicode="&#xe69a;" 
d="M1024 384q0 -15 -11 -26l-146 -146q-11 -11 -26 -11t-25.5 11t-10.5 26v73h-220v-220h73q15 0 26 -10.5t11 -25.5t-11 -26l-146 -146q-11 -11 -26 -11t-26 11l-146 146q-11 11 -11 26t11 25.5t26 10.5h73v220h-220v-73q0 -15 -10.5 -26t-25.5 -11t-26 11l-146 146
q-11 11 -11 26t11 26l146 146q11 11 26 11t25.5 -11t10.5 -26v-73h220v220h-73q-15 0 -26 10.5t-11 25.5t11 26l146 146q11 11 26 11t26 -11l146 -146q11 -11 11 -26t-11 -25.5t-26 -10.5h-73v-220h220v73q0 15 10.5 26t25.5 11t26 -11l146 -146q11 -11 11 -26z" />
    <glyph glyph-name="uniE69B" unicode="&#xe69b;" 
d="M783 55l-271 269l-271 -269q-13 -12 -30 -12t-29.5 12.5t-12.5 29.5t12 30l271 269l-269 271q-12 13 -12 30t12.5 29.5t29.5 12.5t30 -12l269 -271l271 269q13 12 30 12t29.5 -12.5t12.5 -29.5t-12 -30l-271 -269l271 -271q12 -13 12 -30t-12 -30q-13 -11 -31 -10.5
t-29 12.5z" />
    <glyph glyph-name="uniE69C" unicode="&#xe69c;" 
d="M862 291h-41q0 49 -2.5 89.5t-10.5 86t-21.5 80.5t-36.5 68.5t-54 55.5t-76 35t-101 13q-161 0 -241.5 -105.5t-80.5 -322.5h-42q0 233 92.5 351.5t271.5 118.5q64 0 116 -15.5t87 -41t61 -63.5t41 -77t24 -89t11.5 -92t2.5 -92zM224 36l-16 -3q-43 -10 -77 20.5t-48 90
t3.5 102t59.5 52.5l17 3zM138 256q-20 -13 -25 -44.5t3 -62.5q8 -35 26 -59.5t41 -27.5zM257 9h-1q-24 -6 -44.5 7t-26.5 37l-50 216q-5 24 7.5 45t36.5 26q25 6 46 -7t26 -37l50 -216q6 -24 -7 -44.5t-37 -26.5zM188 307q-11 -2 -16.5 -11t-3.5 -19l50 -216
q3 -10 11.5 -15.5t19.5 -3.5q10 3 16 11.5t3 18.5l-50 217q-2 10 -11 15.5t-19 2.5zM862 304l16 -4q42 -10 59.5 -52t3.5 -101.5t-48 -90t-76 -20.5l-17 4zM841 65q24 3 41.5 28t25.5 59q8 31 3 62.5t-25 44.5zM723 83l51 216q5 24 26 36.5t45 7.5q24 -6 37 -26.5t7 -44.5
l-50 -216q-5 -23 -26 -36t-45 -8v1q-24 5 -37 26t-8 44zM807 291l-51 -215q-2 -10 3.5 -19t15.5 -11l1 -1q10 -2 19 3.5t11 15.5l50 216q2 10 -3.5 18.5t-15.5 11.5q-10 2 -19 -3.5t-11 -15.5z" />
    <glyph glyph-name="uniE69D" unicode="&#xe69d;" horiz-adv-x="1025" 
d="M512 812q-104 0 -199 -40.5t-163.5 -109t-109 -163.5t-40.5 -199t40.5 -199t109 -163.5t163.5 -109t199 -40.5t199 40.5t163.5 109t109 163.5t40.5 199t-40.5 199t-109 163.5t-163.5 109t-199 40.5zM512 -148q-91 0 -174 35.5t-143 95.5t-95.5 143t-35.5 174t35.5 174
t95.5 143t143 95.5t174 35.5t174 -35.5t143 -95.5t95.5 -143t35.5 -174t-35.5 -174t-95.5 -143t-143 -95.5t-174 -35.5zM709 279v5v-5zM709 292v-2v-6v8zM793 349h-31q-12 99 -83.5 166t-168 67t-168.5 -67t-83 -166h-30q-21 0 -36 -15t-15 -36v-135q0 -21 15 -36t36 -15h33
q21 0 36 15t15 36v135q0 4 -1 7v9q1 92 59 152t139 61q85 1 144 -61t55 -148v-19v-1v-135q0 -21 15 -36t35 -15h34q21 0 35.5 15t14.5 36v135q0 21 -14.5 36t-35.5 15z" />
    <glyph glyph-name="uniE69E" unicode="&#xe69e;" 
d="M456 -78q-103 0 -193 52.5t-140 145.5q-75 138 -30 288q22 73 69 131t114 94t143 43t144.5 -13.5t128.5 -68t96 -114.5q55 -100 23 -256l-30 6q29 145 -20 235q-33 62 -88 106t-118 62.5t-133 12.5t-132 -40q-61 -33 -104.5 -86.5t-63.5 -120.5q-41 -138 28 -264
q33 -62 88 -106t118 -62.5t133 -12.5t132 40l14 -27q-84 -45 -179 -45zM796 227zM795 193l-114 167l26 17l94 -138l126 110l20 -23z" />
    <glyph glyph-name="uniE69F" unicode="&#xe69f;" 
d="M776 184l-64 -64q-13 -13 -31.5 -13t-31.5 13l-137 137l-137 -137q-13 -13 -31.5 -13t-31.5 13l-64 64q-13 13 -13 31.5t13 31.5l137 137l-137 137q-13 13 -13 31.5t13 31.5l64 64q13 13 31.5 13t31.5 -13l137 -137l137 137q13 13 31.5 13t31.5 -13l64 -64
q13 -13 13 -31.5t-13 -31.5l-137 -137l137 -137q13 -13 13 -31.5t-13 -31.5z" />
    <glyph glyph-name="uniE6A0" unicode="&#xe6a0;" 
d="M929 86q0 -12 -8.5 -21t-20.5 -9h-776q-12 0 -20.5 9t-8.5 21v59q0 13 8.5 21.5t20.5 8.5h776q12 0 20.5 -8.5t8.5 -21.5v-59zM870 444q0 -13 -9 -21.5t-21 -8.5h-656q-12 0 -21 8.5t-9 21.5v59q0 13 9 21.5t21 8.5h656q12 0 21 -8.5t9 -21.5v-59zM751 265
q0 -13 -9 -21.5t-21 -8.5h-418q-12 0 -21 8.5t-9 21.5v59q0 13 9 21.5t21 8.5h418q12 0 21 -8.5t9 -21.5v-59zM691 623q0 -13 -9 -21.5t-21 -8.5h-298q-12 0 -21 8.5t-9 21.5v59q0 12 9 21t21 9h298q12 0 21 -9t9 -21v-59z" />
    <glyph glyph-name="uniE6A1" unicode="&#xe6a1;" 
d="M284 703h457q37 0 64 -27t27 -64v-454q0 -38 -27 -64.5t-64 -26.5h-457q-38 0 -65 26.5t-27 64.5v454q0 37 27 64t65 27z" />
    </font>
</defs>
</svg>
